<svg xmlns="http://www.w3.org/2000/svg" width="354.095" height="354.474" viewBox="0 0 354.095 354.474">
  <g id="aa" transform="translate(-0.955)">
    <path id="Trazado_1" data-name="Trazado 1" d="M208.823,280.618A11.081,11.081,0,0,0,219.9,269.541V203.077A11.081,11.081,0,0,0,208.823,192H197.745a11.077,11.077,0,0,0,0,22.155v55.386A11.081,11.081,0,0,0,208.823,280.618Zm0,0" transform="translate(-85.432 -59.072)"/>
    <path id="Trazado_2" data-name="Trazado 2" d="M310.564,280.618a25.875,25.875,0,0,0,25.849-25.846V217.846A25.875,25.875,0,0,0,310.564,192h-7.383a25.875,25.875,0,0,0-25.849,25.846v36.926a25.875,25.875,0,0,0,25.849,25.846Zm-11.077-25.846V217.846a3.7,3.7,0,0,1,3.694-3.692h7.383a3.7,3.7,0,0,1,3.694,3.692v36.926a3.7,3.7,0,0,1-3.694,3.692h-7.383A3.7,3.7,0,0,1,299.487,254.772Zm0,0" transform="translate(-113.326 -59.072)"/>
    <path id="Trazado_3" data-name="Trazado 3" d="M177.048,0c61.568,0,120.761,31.163,154.917,78.044V40.618a11.065,11.065,0,1,1,22.131,0v81.233c0,.1-.059.192-.059.311a11.28,11.28,0,0,1-.486,2.42,11.946,11.946,0,0,1-.457,1.788,11.826,11.826,0,0,1-1.21,1.788,10.613,10.613,0,0,1-1.224,1.655,11.28,11.28,0,0,1-1.534,1.033A10.44,10.44,0,0,1,347,132.116c-.1.043-.162.116-.251.146a9.777,9.777,0,0,1-1.872.295,10.879,10.879,0,0,1-1.845.371H261.97a11.077,11.077,0,0,1,0-22.155h64.18c-26.113-52.138-86.163-88.618-149.1-88.618-85.425,0-154.917,69.565-154.917,155.082S91.622,332.319,177.048,332.319a153.338,153.338,0,0,0,109.46-45.475,11.074,11.074,0,1,1,15.682,15.64,175.237,175.237,0,0,1-125.143,51.99C79.42,354.474,0,274.969,0,177.237S79.42,0,177.047,0Zm0,0" transform="translate(0.955)"/>
  </g>
</svg>
