<svg id="_-10s" data-name="-10s" xmlns="http://www.w3.org/2000/svg" width="354.051" height="354.051" viewBox="0 0 354.051 354.051">
  <path id="Trazado_4" data-name="Trazado 4" d="M208.8,280.513a11.068,11.068,0,0,0,11.064-11.064V203.064A11.068,11.068,0,0,0,208.8,192H197.732a11.064,11.064,0,1,0,0,22.128v55.32A11.068,11.068,0,0,0,208.8,280.513Zm0,0" transform="translate(-57.586 -59.231)"/>
  <path id="Trazado_5" data-name="Trazado 5" d="M310.524,280.513A25.844,25.844,0,0,0,336.342,254.7V217.815A25.844,25.844,0,0,0,310.524,192H303.15a25.844,25.844,0,0,0-25.818,25.815V254.7a25.844,25.844,0,0,0,25.818,25.815ZM299.46,254.7V217.815a3.691,3.691,0,0,1,3.69-3.687h7.374a3.691,3.691,0,0,1,3.69,3.687V254.7a3.691,3.691,0,0,1-3.69,3.687H303.15A3.691,3.691,0,0,1,299.46,254.7Zm0,0" transform="translate(-85.556 -59.231)"/>
  <path id="Trazado_6" data-name="Trazado 6" d="M177.025,0c-61.56,0-120.746,31.126-154.9,77.951V40.569A11.064,11.064,0,0,0,0,40.569v81.136c0,.1.059.192.059.311a11.254,11.254,0,0,0,.486,2.418A11.919,11.919,0,0,0,1,126.219,11.809,11.809,0,0,0,2.212,128a10.6,10.6,0,0,0,1.224,1.653,11.276,11.276,0,0,0,1.534,1.032,10.44,10.44,0,0,0,2.126,1.27c.1.043.162.116.251.146a9.785,9.785,0,0,0,1.872.294,10.888,10.888,0,0,0,1.845.37H92.113a11.064,11.064,0,1,0,0-22.128H27.941c26.11-52.076,86.152-88.513,149.084-88.513,85.415,0,154.9,69.482,154.9,154.9s-69.482,154.9-154.9,154.9A153.4,153.4,0,0,1,67.579,286.5,11.067,11.067,0,1,0,51.9,302.123a175.31,175.31,0,0,0,125.127,51.928c97.616,0,177.025-79.41,177.025-177.025S274.641,0,177.025,0Zm0,0"/>
</svg>
