<svg xmlns="http://www.w3.org/2000/svg" xmlns:xlink="http://www.w3.org/1999/xlink" xmlns:fi="http://pattern.flaticon.com/" x="0" y="0" width="1000" height="500" viewBox="0 0 700 350"><rect x="0px" y="0px" width="100%" height="100%" opacity="1" fill="#fff2dd"/><defs><g transform="matrix(-0.19126862287521362 0 0 0.19126862287521362 329.97910709188875 239.28836067856196)" id="L1_3"><circle cx="119" cy="128" r="86" fill="#eaeaea"/><g><path d="m199.885 213.262c0 27.027-21.91 48.938-48.938 48.938s-48.938-21.91-48.938-48.938c0 0-9.258-131.927 46.823-158.825 5.402-2.591 11.722-2.501 17.081.178 7.704 3.852 11.909 12.298 10.409 20.78-3.091 17.477-6.322 46.936 2.956 63.172 20.607 36.06 20.607 74.695 20.607 74.695z" fill="#842582"/><path d="m150.947 266.199c-29.191 0-52.937-23.746-52.937-52.938-.375-5.219-8.773-134.676 49.094-162.43 6.441-3.098 14.141-3.027 20.598.203 9.336 4.672 14.383 14.742 12.559 25.055-2.828 16.012-6.27 45.16 2.492 60.492 20.895 36.559 21.133 75.059 21.133 76.68-.001 29.192-23.747 52.938-52.939 52.938zm6.219-209.64c-2.27 0-4.535.492-6.602 1.484-53.02 25.43-44.656 153.648-44.566 154.938.012 25.059 20.172 45.219 44.949 45.219s44.938-20.16 44.938-44.938c0-.402-.281-38.07-20.078-72.711-9.512-16.641-7.109-44.996-3.422-65.852 1.203-6.801-2.117-13.434-8.262-16.508-2.179-1.089-4.57-1.632-6.957-1.632z" fill="#4c241d"/></g><g><path d="m112.312 92.206s20.605-15.454 36.059-25.757c0 0-5.151 20.605 0 30.908 0 0 20.605-5.151 25.757-20.605 0 0 5.151 13.291 0 24.675 0 0 15.454-9.221 10.303-50.432l2.158-4.315c1.653-3.307.313-7.328-2.994-8.981-2.577-1.289-5.69-.783-7.727 1.254l-1.771 1.771c-2.93 2.93-7.044 4.307-11.151 3.754-12.023-1.622-38.835.533-50.634 47.728z" fill="#a9ba5a"/><path d="m174.127 105.426c-.961 0-1.914-.344-2.664-1.016-1.305-1.164-1.699-3.043-.98-4.633 1.812-4.004 2.117-8.379 1.848-12.133-8.625 9.891-22.258 13.41-22.988 13.59-1.832.465-3.707-.414-4.547-2.09-3.375-6.746-3.027-16.641-2.082-23.992-13.547 9.422-27.832 20.125-28.004 20.254-1.352 1.016-3.195 1.07-4.609.133s-2.082-2.66-1.668-4.301c12.691-50.773 42.727-52.395 55.051-50.727 2.879.395 5.73-.562 7.785-2.617l1.777-1.773c3.246-3.258 8.207-4.062 12.34-2 5.27 2.637 7.414 9.07 4.781 14.348l-1.617 3.238c4.871 41.57-10.578 52.082-12.371 53.152-.638.379-1.345.567-2.052.567zm-25.754-42.977c.805 0 1.613.246 2.301.73 1.352.949 1.98 2.637 1.582 4.238-1.16 4.648-3.316 16.977-1.43 24.934 5.574-2.082 16.297-7.23 19.504-16.867.535-1.598 2.016-2.691 3.699-2.734 1.879.012 3.219.98 3.828 2.555.102.27 1.234 3.254 1.957 7.605 1.648-7.09 2.422-17.207.648-31.418-.098-.785.039-1.578.391-2.285l2.156-4.316c.664-1.328.125-2.949-1.203-3.613-1.035-.516-2.289-.32-3.105.5l-1.781 1.777c-3.824 3.832-9.086 5.617-14.508 4.887-11.457-1.566-31.191 1.207-42.805 33.402 7.426-5.43 17.836-12.918 26.547-18.723.672-.449 1.446-.672 2.219-.672z" fill="#4c241d"/></g><path d="m165.17 247.488c-1.555 0-3.031-.91-3.68-2.43-.867-2.035.078-4.383 2.109-5.25 11.086-4.727 18.246-15.562 18.246-27.609 0-2.211 1.789-4 4-4s4 1.789 4 4c0 15.258-9.07 28.984-23.105 34.969-.511.219-1.046.32-1.57.32z" fill="#4c241d"/><g><path d="m245.846 129.91v-.978c3.04-3.15 6.175-7.324 8.981-12.183 7.18-12.436 9.472-24.554 5.119-27.067-2.148-1.24-5.515.1-9.237 3.262.039-.066.079-.128.117-.195 7.18-12.436 9.472-24.554 5.119-27.067-2.625-1.516-7.07.827-11.758 5.64-2.36-12.57-7-21.123-12.342-21.123s-9.982 8.553-12.342 21.123c-4.688-4.812-9.133-7.155-11.758-5.64-4.352 2.513-2.061 14.631 5.119 27.067.038.066.079.129.117.195-3.721-3.162-7.088-4.502-9.237-3.261-4.352 2.513-2.061 14.631 5.119 27.067 2.805 4.859 5.94 9.032 8.981 12.183v.978c-5.51-6.528-11.04-9.994-14.1-8.227-4.352 2.513-2.061 14.631 5.119 27.067.292.505.587 1.003.885 1.493 5.298 8.702 8.095 42.679 8.095 52.867v31.09h28v-31.09c0-10.188 2.797-44.165 8.095-52.867.298-.49.594-.988.885-1.493 7.18-12.436 9.472-24.554 5.119-27.067-3.056-1.768-8.587 1.698-14.096 8.226z" fill="#77a052"/><path d="m245.846 238.199h-28c-2.211 0-4-1.789-4-4v-31.09c0-11.09-2.992-43.367-7.512-50.789-.305-.496-.617-1.027-.926-1.559-3.699-6.406-6.309-12.98-7.359-18.523-1.676-8.855 1.086-12.512 3.695-14.02.883-.512 1.828-.828 2.82-.957-3.25-5.918-5.547-11.91-6.516-17.023-1.676-8.855 1.086-12.512 3.695-14.02.812-.469 1.82-.848 3.027-.969-1.273-3.18-2.195-6.227-2.723-9.012-1.676-8.855 1.086-12.512 3.695-14.02 1.957-1.125 5.707-2.039 11.352 1.789 3.219-11.406 8.445-17.809 14.75-17.809s11.531 6.402 14.75 17.809c5.641-3.824 9.398-2.918 11.352-1.789 2.609 1.508 5.371 5.164 3.695 14.02-.531 2.793-1.457 5.852-2.715 9.016 1.203.117 2.207.496 3.023.969 2.605 1.504 5.367 5.16 3.691 14.016-.969 5.113-3.266 11.105-6.516 17.023.996.129 1.938.445 2.82.957 2.609 1.508 5.371 5.164 3.695 14.02-1.051 5.543-3.66 12.117-7.352 18.512-.316.543-.629 1.074-.945 1.59-4.508 7.402-7.5 39.68-7.5 50.77v31.09c.004 2.21-1.785 3.999-3.996 3.999zm-24-8h20v-27.09c0-7.184 2.262-44.402 8.676-54.945.297-.48.57-.949.848-1.426 6.59-11.418 7.328-19.609 6.535-21.496-1.012.164-4.203 1.562-9 7.246-1.086 1.289-2.855 1.758-4.434 1.18-1.574-.578-2.625-2.078-2.625-3.758v-.977c0-1.035.402-2.031 1.121-2.777 2.953-3.062 5.855-7.008 8.395-11.406 6.598-11.426 7.336-19.613 6.543-21.508-.641.109-2.215.719-4.605 2.75-1.484 1.266-3.664 1.273-5.164.016-1.492-1.258-1.863-3.406-.875-5.09 6.695-11.59 7.438-19.785 6.645-21.676-.863.137-3.234 1.16-6.848 4.871-1.043 1.07-2.605 1.48-4.023 1.039-1.43-.43-2.5-1.621-2.773-3.09-2.516-13.363-6.832-17.863-8.414-17.863s-5.898 4.5-8.414 17.863c-.273 1.469-1.344 2.66-2.773 3.09-1.422.441-2.98.031-4.023-1.039-3.613-3.711-5.984-4.734-6.848-4.871-.793 1.891-.055 10.082 6.543 21.508.973 1.684.648 3.926-.844 5.172-1.504 1.246-3.613 1.324-5.094.07-2.391-2.031-3.965-2.641-4.605-2.75-.793 1.895-.055 10.082 6.543 21.508 2.539 4.398 5.441 8.344 8.395 11.406.719.746 1.121 1.742 1.121 2.777v.977c0 1.68-1.051 3.18-2.625 3.758-1.574.574-3.344.109-4.434-1.18-4.797-5.684-7.988-7.082-9-7.246-.793 1.887-.055 10.078 6.543 21.508.27.465.543.934.828 1.395 6.426 10.562 8.688 47.781 8.688 54.965v27.089z" fill="#4c241d"/></g><g><path d="m109.846 194.199c0-6.627 5.373-12 12-12" fill="#bf7e68"/><path d="m109.846 198.199c-2.211 0-4-1.789-4-4 0-8.824 7.176-16 16-16 2.211 0 4 1.789 4 4s-1.789 4-4 4c-4.41 0-8 3.59-8 8 0 2.211-1.789 4-4 4z" fill="#4c241d"/></g><g><path d="m144.522 262.199h-11.931c-32.508 0-58.86-26.353-58.86-58.86v-100.326c0-17.645 14.304-31.95 31.95-31.95l5.075.84c11.013 1.823 19.09 11.347 19.09 22.51v106.422c0 37.364 14.676 61.364 14.676 61.364z" fill="#77a052"/><path d="m144.522 266.199h-11.93c-34.66 0-62.859-28.199-62.859-62.859v-100.328c0-19.824 16.125-35.949 35.949-35.949.219 0 .438.02.652.055l5.074.84c13 2.152 22.437 13.281 22.437 26.457v106.422c0 35.824 13.949 59.047 14.09 59.277.754 1.234.781 2.781.074 4.043s-2.042 2.042-3.487 2.042zm-39.157-191.136c-15.265.172-27.632 12.644-27.632 27.949v100.328c0 30.25 24.609 54.859 54.859 54.859h5.352c-4.48-9.586-12.098-29.918-12.098-57.363v-106.422c0-9.246-6.621-17.055-15.742-18.566z" fill="#4c241d"/></g><path d="m103.381 62.746c-1.867 0-3.527-1.297-3.902-3.191-.137-.684-3.074-16.859 18.629-29.23 1.914-1.09 4.363-.426 5.457 1.496 1.094 1.918.422 4.363-1.496 5.457-16.445 9.371-14.812 20.312-14.734 20.773.363 2.152-1.066 4.23-3.219 4.625-.247.047-.493.07-.735.07z" fill="#4c241d"/><g><path d="m62.652 100.301c10.826-5.136 20.809-11.453 28.316-21.237 0 0-5.122 11.136 11.079 27.396 0 0 15.799-12.26 14.158-28.316 1.64 16.057 13.126 16.573 21.237 21.237 0 0-3.597-41.181-30.743-42.475-3.55-.001-32.853-6.707-44.047 43.395z" fill="#a9ba5a"/><path d="m102.049 110.457c-1.031 0-2.059-.398-2.832-1.176-7.68-7.703-11.012-14.547-12.289-19.898-5.879 5.406-13.16 10.07-22.562 14.531-1.387.648-3.016.465-4.211-.488s-1.742-2.504-1.406-3.996c5.082-22.742 17.445-49.305 47.129-46.59.359.031.641.062.84.066 30.461 1.445 34.551 44.301 34.711 46.125.129 1.484-.574 2.918-1.832 3.719-1.254.805-2.852.844-4.145.098-1.578-.91-3.379-1.672-5.285-2.477-4.141-1.754-8.852-3.75-12.441-7.844-4.359 10.102-12.723 16.703-13.223 17.09-.727.563-1.591.84-2.454.84zm-11.078-35.394c.703 0 1.418.188 2.062.574 1.742 1.051 2.418 3.246 1.566 5.098-.102.266-3.004 7.941 7.676 20.117 4-3.996 10.953-12.48 9.949-22.305-.012-.137-.02-.273-.02-.41 0-2.027 1.531-3.766 3.594-3.977 2.156-.207 4.16 1.375 4.387 3.574.984 9.656 5.844 12.172 12.105 14.848-2.324-10.992-8.859-30.875-25.781-31.68-.152-.012-.664-.035-1.352-.098-17.23-1.535-29.402 9.133-36.352 31.793 8.246-4.727 14.266-9.82 18.988-15.969.783-1.018 1.971-1.565 3.178-1.565z" fill="#4c241d"/></g><g><path d="m80.446 191.034c-2.281-.483-35.086-7.924-24.088-28.911 8.712-16.625 27.616-16.113 40.158-13.565 12.214 2.481 25.184-2.488 30.417-12.52.68-1.303 1.245-2.682 1.656-4.133 1.966-6.952 8.581-12.245 16.714-12.367 8.637-.13 17.97 4.247 20.278 22.543.046.364.089.726.128 1.087 3.108 28.324-25.158 51.02-55.543 51.032-10.201.003-21.027-1.325-29.72-3.166z" fill="#ffce56"/><path d="m110.123 198.199c-9.629 0-20.742-1.184-30.504-3.25 0 0 0 0-.004 0-2.238-.477-22.059-5.008-27.875-17.379-2.508-5.336-2.148-11.156 1.074-17.305 7.535-14.379 23.324-19.938 44.496-15.625 10.797 2.191 21.766-2.203 26.074-10.453.582-1.113 1.035-2.25 1.355-3.371 2.5-8.852 10.934-15.133 20.504-15.277 7.699.035 21.414 3.109 24.305 26.043l.137 1.152c1.367 12.465-2.84 24.863-11.84 34.914-11.527 12.859-29.348 20.543-47.68 20.551-.01 0-.026 0-.042 0zm-28.843-11.078c9.238 1.957 19.75 3.078 28.844 3.078h.043c16.09-.008 31.687-6.695 41.719-17.891 5.281-5.895 11.277-15.66 9.848-28.703l-.121-1.012c-1.637-12.965-6.992-19.195-16.246-19.055-6.066.09-11.379 3.977-12.93 9.453-.465 1.645-1.121 3.293-1.957 4.895-5.922 11.34-20.551 17.461-34.762 14.594-12.285-2.504-28.465-2.535-35.816 11.496-2.023 3.867-2.324 7.199-.922 10.188 3.397 7.227 16.073 11.637 22.3 12.957z" fill="#4c241d"/></g><g><path d="m149.975 181.922c-4.652-4.25-8.506-9.303-11.375-14.897l83.678-61.436c11.789 11.619 17.92 28.607 14.976 46.171-4.8 28.636-31.906 47.96-60.542 43.159-10.368-1.738-19.514-6.399-26.737-12.997" fill="#ffffff"/><path d="m185.522 199.656c-3.145 0-6.309-.262-9.473-.793-10.785-1.809-20.734-6.645-28.773-13.988-5.016-4.586-9.133-9.977-12.234-16.027-.898-1.746-.391-3.887 1.191-5.047l83.676-61.438c1.578-1.168 3.777-1.008 5.176.375 13.137 12.945 19.16 31.52 16.113 49.68-2.5 14.906-10.652 27.945-22.957 36.715-9.692 6.91-21.051 10.523-32.719 10.523zm-32.848-20.687c6.895 6.301 15.438 10.449 24.695 12.004 26.43 4.422 51.508-13.461 55.938-39.875 2.43-14.477-1.855-29.258-11.508-40.199l-77.988 57.262c2.414 4.007 5.386 7.632 8.863 10.808z" fill="#4c241d"/></g><g><path d="m226.104 109.83c-1.204-1.475-2.467-2.903-3.827-4.242l-38.544 28.299c3.512 5.051 8.768 8.687 15.062 9.742 13.072 2.191 25.594-7.513 27.968-21.675.707-4.213.415-8.338-.659-12.124z" fill="#eaeaea"/><path d="m202.479 147.938c-1.438 0-2.887-.121-4.344-.363-7.121-1.195-13.402-5.242-17.688-11.402-1.238-1.781-.832-4.227.918-5.508l38.543-28.301c1.578-1.168 3.777-1.008 5.176.375 1.355 1.336 2.703 2.828 4.117 4.559.348.426.602.914.75 1.441 1.285 4.535 1.543 9.207.758 13.879-2.472 14.749-14.66 25.32-28.23 25.32zm-12.942-13.352c2.762 2.699 6.18 4.473 9.918 5.098 10.891 1.852 21.355-6.43 23.363-18.391.543-3.227.422-6.449-.355-9.59-.227-.273-.453-.535-.68-.793z" fill="#4c241d"/></g><g><path d="m49.846 162.199h212v36h-212z" fill="#bf7e68"/><path d="m261.846 202.199h-212c-2.211 0-4-1.789-4-4v-36c0-2.211 1.789-4 4-4h212c2.211 0 4 1.789 4 4v36c0 2.211-1.789 4-4 4zm-208-8h204v-28h-204z" fill="#4c241d"/></g><g><path d="m49.846 230.199h212v36h-212z" fill="#bf7e68"/><path d="m261.846 270.199h-212c-2.211 0-4-1.789-4-4v-36c0-2.211 1.789-4 4-4h212c2.211 0 4 1.789 4 4v36c0 2.211-1.789 4-4 4zm-208-8h204v-28h-204z" fill="#4c241d"/></g><g><path d="m233.846 198.199h24v32h-24z" fill="#bf7e68"/><path d="m257.846 234.199h-24c-2.211 0-4-1.789-4-4v-32c0-2.211 1.789-4 4-4h24c2.211 0 4 1.789 4 4v32c0 2.211-1.789 4-4 4zm-20-8h16v-24h-16z" fill="#4c241d"/></g><g><path d="m53.846 198.199h24v32h-24z" fill="#bf7e68"/><path d="m77.846 234.199h-24c-2.211 0-4-1.789-4-4v-32c0-2.211 1.789-4 4-4h24c2.211 0 4 1.789 4 4v32c0 2.211-1.789 4-4 4zm-20-8h16v-24h-16z" fill="#4c241d"/></g><g fill="#4c241d"><circle cx="70" cy="179" r="4"/><circle cx="238" cy="179" r="4"/><circle cx="70" cy="247" r="4"/><circle cx="238" cy="247" r="4"/><path d="m209.846 186.199h-48c-2.211 0-4-1.789-4-4s1.789-4 4-4h48c2.211 0 4 1.789 4 4s-1.789 4-4 4z"/><path d="m125.846 254.199h-24c-2.211 0-4-1.789-4-4s1.789-4 4-4h24c2.211 0 4 1.789 4 4s-1.789 4-4 4z"/><path d="m129.846 178.199h-20c-2.211 0-4-1.789-4-4s1.789-4 4-4h20c2.211 0 4 1.789 4 4s-1.789 4-4 4z"/><path d="m149.846 254.199h-8c-2.211 0-4-1.789-4-4s1.789-4 4-4h8c2.211 0 4 1.789 4 4s-1.789 4-4 4z"/><path d="m209.846 246.199h-8c-2.211 0-4-1.789-4-4s1.789-4 4-4h8c2.211 0 4 1.789 4 4s-1.789 4-4 4z"/></g></g><g transform="matrix(0.08566416054964066 0 0 0.08566416054964066 104.99478091672063 11.964812929653135)" id="L1_4"><path d="m478.883 400.694h-444.212c-19.148 0-34.671-15.522-34.671-34.671v-6.826c0-19.148 15.523-34.671 34.671-34.671h444.213c19.148 0 34.671 15.523 34.671 34.671v6.826c-.001 19.149-15.523 34.671-34.672 34.671z" fill="#e94444"/><path d="m513.552 359.193v6.828c0 19.152-15.516 34.678-34.668 34.678h-20.288c19.152 0 34.668-15.526 34.668-34.678v-6.828c0-19.142-15.516-34.668-34.668-34.668h20.288c19.152 0 34.668 15.527 34.668 34.668z" fill="#d83131"/><path d="m478.883 400.694h-222.106-222.106s-15.319 73.971 71.855 103.071c14.933 4.985 30.523 7.306 46.157 7.306h104.095 104.095c15.634 0 31.224-2.321 46.157-7.306 87.172-29.1 71.853-103.071 71.853-103.071z" fill="#fe9738"/><path d="m407.028 503.763c-14.937 4.99-30.525 7.314-46.155 7.314h-23.532c15.64 0 31.228-2.324 46.165-7.314 87.165-29.1 71.846-103.063 71.846-103.063h23.532c0-.001 15.32 73.963-71.856 103.063z" fill="#fe860a"/><path d="m479.696 338.336c0 17.31-20.114 26.694-33.487 15.703-5.497-4.518-11.989-8.098-22.278-8.098-27.878 0-27.878 22.083-55.757 22.083s-27.879-22.083-55.758-22.083c-27.878 0-27.878 22.083-55.756 22.083-27.877 0-27.877-22.083-55.755-22.083-27.879 0-27.879 22.083-55.758 22.083-27.878 0-27.878-22.083-55.756-22.083-10.284 0-16.774 3.578-22.27 8.094-13.374 10.991-33.488 1.609-33.488-15.702v-40.967h446.061v40.97z" fill="#bbec6c"/><path d="m479.7 297.368v40.969c0 16.198-17.613 25.453-30.825 17.571 5.836-3.409 10.03-9.659 10.03-17.571v-40.969z" fill="#a2e62e"/><path d="m33.858 264.541v33.13h47.82c9.948 0 18.013 8.065 18.013 18.013v95.416c0 12.719 10.311 23.03 23.03 23.03 12.719 0 23.029-10.311 23.029-23.03v-95.416c0-9.948 8.065-18.013 18.013-18.013h315.934v-33.13z" fill="#fee45a"/><path d="m458.906 264.539h20.795v33.129h-20.795z" fill="#fedf30"/><path d="m478.883 266.809h-444.212c-19.148 0-34.671-15.522-34.671-34.671v-6.826c0-19.148 15.523-34.671 34.671-34.671h444.213c19.148 0 34.671 15.523 34.671 34.671v6.826c-.001 19.149-15.523 34.671-34.672 34.671z" fill="#9e5528"/><path d="m513.552 225.31v6.828c0 19.152-15.516 34.668-34.668 34.668h-20.288c19.152 0 34.668-15.516 34.668-34.668v-6.828c0-19.142-15.516-34.668-34.668-34.668h20.288c19.152.001 34.668 15.527 34.668 34.668z" fill="#904d24"/><path d="m256.777 2.483c-173.165 2.506-231.346 96.439-250.553 151.018-6.582 18.702 7.451 38.274 27.277 38.274h223.276 223.274c19.973 0 33.825-19.769 27.164-38.599-19.323-54.626-77.616-148.192-250.438-150.693z" fill="#fe9738"/><path d="m480.052 191.777h-2.469c6.725-7.5 9.493-18.419 5.744-29.038-19.328-54.636-77.62-148.195-250.442-150.695-44.709.64-81.763 7.386-112.443 17.974 34.792-15.981 79.335-26.714 136.336-27.54 172.822 2.51 231.115 96.07 250.442 150.695 6.652 18.832-7.201 38.604-27.168 38.604z" fill="#fe860a"/><g><path d="m185.299 81.89c-1.204 0-2.425-.291-3.559-.903-3.644-1.969-5.001-6.52-3.032-10.164l6.721-12.436c1.969-3.644 6.52-5.001 10.164-3.032s5.001 6.52 3.032 10.164l-6.721 12.436c-1.356 2.51-3.938 3.935-6.605 3.935z" fill="#e57917"/><path d="m256.684 82.739c-4.142 0-7.5-3.358-7.5-7.5v-14.136c0-4.142 3.358-7.5 7.5-7.5s7.5 3.358 7.5 7.5v14.136c0 4.142-3.358 7.5-7.5 7.5z" fill="#e57917"/><path d="m328.255 81.786c-2.587 0-5.104-1.34-6.495-3.739l-7.092-12.229c-2.078-3.583-.858-8.172 2.725-10.25s8.172-.858 10.25 2.725l7.092 12.229c2.078 3.583.858 8.172-2.725 10.25-1.184.688-2.477 1.014-3.755 1.014z" fill="#e57917"/></g></g><g transform="matrix(0.09898536652326584 0 0 0.09898536652326584 270.65974617004395 7.518275620034899)" id="L1_5"><path d="m353.971 24.697-53.526 50.818c-3.254 3.09-7.571 4.812-12.058 4.812h-111.825c-9.103 0-16.483 7.38-16.483 16.483 0 9.103 7.38 16.483 16.483 16.483h125.7c4.84 0 9.465-2.003 12.776-5.534l46.651-49.755c1.947-2.077 4.668-3.255 7.515-3.255h136.614c3.414 0 6.181-2.767 6.181-6.181v-23.352c0-3.414-2.767-6.181-6.181-6.181h-137.661c-5.279 0-10.357 2.027-14.186 5.662z" fill="#c8effe"/><path d="m505.819 19.035h-32.122c3.414 0 6.181 2.767 6.181 6.181v13.73c0 2.276-1.845 4.121-4.121 4.121h-112.393c-2.847 0-5.568 1.178-7.515 3.255l-46.651 49.755c-3.311 3.531-7.935 5.534-12.776 5.534h-125.7c-4.036 0-7.729-1.456-10.595-3.864.489 8.664 7.649 15.545 16.436 15.545h125.7c4.84 0 9.465-2.003 12.776-5.534l46.651-49.755c1.948-2.077 4.668-3.255 7.515-3.255h104.492 32.122c3.414 0 6.181-2.767 6.181-6.181v-23.351c0-3.469-2.853-6.181-6.181-6.181z" fill="#99e6fc"/><path d="m211.928 230.05h-32.966v-163.455c0-9.103 7.38-16.483 16.483-16.483 9.103 0 16.483 7.38 16.483 16.483z" fill="#fec165"/><path d="m228.411 147.608c-9.103 0-16.483-7.38-16.483-16.483v-64.53c0-9.103 7.38-16.483 16.483-16.483 9.103 0 16.483 7.38 16.483 16.483v64.53c0 9.103-7.38 16.483-16.483 16.483z" fill="#fdb441"/><path d="m178.962 230.05h-32.966v-163.455c0-9.103 7.38-16.483 16.483-16.483 9.103 0 16.483 7.38 16.483 16.483z" fill="#fdb441"/><path d="m261.377 147.608c-9.103 0-16.483-7.38-16.483-16.483v-64.53c0-9.103 7.38-16.483 16.483-16.483 9.103 0 16.483 7.38 16.483 16.483v64.53c-.001 9.103-7.38 16.483-16.483 16.483z" fill="#fec165"/><path d="m195.445 50.112c-3.223 0-6.221.939-8.761 2.538 4.634 2.918 7.722 8.064 7.722 13.944v163.456h17.521v-163.455c.001-9.103-7.379-16.483-16.482-16.483z" fill="#fdb441"/><path d="m228.411 50.112c-3.223 0-6.221.939-8.761 2.538 4.634 2.918 7.722 8.064 7.722 13.944v64.53c0 5.88-3.089 11.027-7.722 13.944 2.54 1.599 5.537 2.538 8.761 2.538 9.103 0 16.483-7.38 16.483-16.483v-64.53c0-9.101-7.38-16.481-16.483-16.481z" fill="#fea613"/><path d="m162.479 50.112c-3.223 0-6.221.939-8.761 2.538 4.634 2.918 7.722 8.064 7.722 13.944v163.456h17.521v-163.455c.001-9.103-7.378-16.483-16.482-16.483z" fill="#fea613"/><path d="m261.377 50.112c-3.223 0-6.221.939-8.761 2.538 4.634 2.918 7.722 8.064 7.722 13.944v64.53c0 5.88-3.089 11.027-7.722 13.944 2.54 1.599 5.537 2.538 8.761 2.538 9.103 0 16.483-7.38 16.483-16.483v-64.53c-.001-9.101-7.38-16.481-16.483-16.481z" fill="#fdb441"/><path d="m19.533 418.023 6.364 51.446c1.66 13.419 13.061 23.496 26.582 23.496h406.813c13.521 0 24.922-10.077 26.582-23.496l6.364-51.446z" fill="#c8effe"/><path d="m463.037 418.023-6.364 51.446c-1.66 13.419-13.061 23.496-26.582 23.496h29.202c13.521 0 24.922-10.077 26.582-23.496l6.364-51.446z" fill="#99e6fc"/><circle cx="352" cy="218" r="31" fill="#dc8758"/><path d="m352.489 187.02c-5.278 0-10.246 1.318-14.601 3.636 9.831 5.232 16.527 15.578 16.527 27.492s-6.696 22.26-16.527 27.492c4.355 2.318 9.323 3.636 14.601 3.636 17.192 0 31.128-13.936 31.128-31.128s-13.936-31.128-31.128-31.128z" fill="#d77f4a"/><path d="m402.454 366.093h-304.712v-7.179c0-80.308 65.103-145.411 145.411-145.411h13.89c80.308 0 145.411 65.103 145.411 145.411z" fill="#fdb441"/><path d="m330.343 342.916c-3.573 0-6.782-2.493-7.551-6.129-6.754-31.93-35.356-55.105-68.01-55.105h-9.368c-32.654 0-61.257 23.175-68.01 55.105-.883 4.176-4.987 6.843-9.158 5.96-4.175-.883-6.843-4.983-5.961-9.158 8.256-39.031 43.216-67.36 83.129-67.36h9.368c39.912 0 74.873 28.329 83.129 67.36.882 4.175-1.786 8.275-5.961 9.158-.539.114-1.077.169-1.607.169z" fill="#fe9901"/><path d="m492.239 430.802h-304.712v-7.179c0-80.308 65.103-145.411 145.411-145.411h13.89c80.308 0 145.411 65.103 145.411 145.411z" fill="#fec165"/><path d="m458.854 407.624c-3.573 0-6.782-2.493-7.551-6.129-10.374-49.05-54.313-84.651-104.475-84.651h-13.889c-50.162 0-94.101 35.601-104.475 84.651-.884 4.175-4.986 6.841-9.158 5.961-4.175-.883-6.843-4.983-5.961-9.158 5.708-26.989 20.679-51.56 42.155-69.186 21.781-17.876 49.282-27.721 77.439-27.721h13.889c28.157 0 55.658 9.845 77.439 27.721 21.476 17.626 36.447 42.197 42.155 69.186.882 4.175-1.786 8.275-5.961 9.158-.538.114-1.077.168-1.607.168z" fill="#fea613"/><path d="m260.972 430.802h-241.439v-5.688c0-63.632 51.584-115.216 115.216-115.216h11.006c63.632 0 115.216 51.584 115.216 115.216v5.688z" fill="#fece85"/><path d="m226.213 407.625c-3.286 0-6.333-2.113-7.369-5.413-10.083-32.109-39.456-53.683-73.089-53.683h-11.005c-33.633 0-63.005 21.573-73.089 53.683-1.278 4.071-5.61 6.336-9.686 5.056-4.071-1.278-6.335-5.615-5.056-9.686 5.743-18.29 17.415-34.716 32.866-46.253 15.992-11.941 34.999-18.253 54.965-18.253h11.006c19.966 0 38.973 6.312 54.965 18.253 15.451 11.537 27.123 27.963 32.866 46.253 1.279 4.071-.985 8.408-5.056 9.686-.771.242-1.551.357-2.318.357z" fill="#fdb441"/><path d="m183.232 407.625c-3.286 0-6.333-2.113-7.369-5.413-4.534-14.436-17.739-24.136-32.859-24.136h-5.503c-15.12 0-28.325 9.7-32.859 24.136-1.278 4.071-5.611 6.336-9.686 5.056-4.071-1.279-6.335-5.615-5.056-9.686 6.566-20.91 25.696-34.959 47.602-34.959h5.503c21.905 0 41.035 14.049 47.602 34.959 1.279 4.071-.985 8.407-5.056 9.686-.771.242-1.552.357-2.319.357z" fill="#fdb441"/><path d="m417.326 407.624c-3.573 0-6.782-2.493-7.551-6.129-6.491-30.691-33.983-52.966-65.37-52.966h-9.042c-31.387 0-58.879 22.276-65.37 52.966-.884 4.175-4.986 6.841-9.158 5.961-4.175-.883-6.843-4.983-5.961-9.158 7.993-37.792 41.843-65.222 80.489-65.222h9.042c38.646 0 72.496 27.43 80.489 65.222.882 4.175-1.786 8.275-5.961 9.158-.54.114-1.077.168-1.607.168z" fill="#fea613"/><path d="m372.316 407.624c-3.573 0-6.782-2.493-7.551-6.129-2.283-10.791-11.951-18.624-22.988-18.624h-3.787c-11.037 0-20.705 7.832-22.988 18.624-.883 4.175-4.984 6.841-9.158 5.961-4.175-.883-6.843-4.983-5.961-9.158 3.785-17.893 19.811-30.879 38.107-30.879h3.787c18.296 0 34.322 12.986 38.107 30.879.882 4.175-1.786 8.275-5.961 9.158-.539.114-1.077.168-1.607.168z" fill="#fea613"/><path d="m493.972 435.938h-475.944c-9.957 0-18.028-8.072-18.028-18.029 0-9.957 8.071-18.028 18.028-18.028h475.944c9.957 0 18.028 8.071 18.028 18.028 0 9.957-8.072 18.029-18.028 18.029z" fill="#99e6fc"/><path d="m429.033 344.145c-8.256-87.033-81.549-155.116-170.743-155.116h-16.384c-58.886 0-110.822 29.688-141.705 74.901l-.002-.021c-8.927 11.635-14.808 27.883-14.808 44.964v.395c0 9.91 8.13 17.852 18.039 17.543 1.156.002 2.312.004 3.467.006 9.711-.152 18.092-6.902 20.29-16.392l3.311-14.296c1.637-7.07 7.935-12.076 15.193-12.076h64.455c5.942 0 10.758 4.817 10.758 10.758v52.941c0 11.259 8.755 20.848 20.007 21.248 11.813.42 21.521-9.032 21.521-20.75v-37.217c0-13.663 11.181-25.174 24.841-24.915 13.242.251 23.899 11.064 23.899 24.366 0 .458 0 21.871 0 21.458 0 11.447 9.28 20.727 20.727 20.727h.149c11.131 0 20.244-8.853 20.565-19.98.242-8.398 7.689-14.746 16.019-13.658 6.823.892 12.027 6.553 12.334 13.434l.417 9.335c.493 11.037 7.22 20.375 16.69 24.677 5.547 2.519 11.925 2.471 17.534.092 8.871-3.763 14.336-12.832 13.426-22.424z" fill="#e94444"/><circle cx="171" cy="209" r="31" fill="#dc8758"/><circle cx="278" cy="255" r="31" fill="#dc8758"/><path d="m493.972 399.881h-29.202c9.957 0 18.028 8.072 18.028 18.028 0 9.957-8.072 18.028-18.028 18.028h29.202c9.957 0 18.028-8.071 18.028-18.028 0-9.956-8.072-18.028-18.028-18.028z" fill="#62dbfb"/><path d="m429.033 344.145c-8.256-87.033-81.549-155.116-170.743-155.116-17.931 0-19.388-.068-25.629.264 84.889 4.593 153.366 70.903 161.329 154.853.558 5.881-1.289 11.559-4.839 15.944 2.522 2.666 5.542 4.852 8.922 6.387 5.547 2.519 11.925 2.471 17.534.092 8.871-3.764 14.336-12.832 13.426-22.424z" fill="#d83131"/></g><g transform="matrix(0.10540270540221577 0.017995583747464926 -0.017995583747464926 0.10540270540221577 107.62377685638378 238.41003797768172)" id="L1_6"><g><path d="m95.396 295.127-84.74 84.74c-4.978 4.978-4.978 13.049 0 18.027 4.978 4.978 13.049 4.978 18.027 0l84.74-84.74z" fill="#e8e4d8"/><path d="m76.534 302.94h32.658v25.494h-32.658z" transform="matrix(0.707 -0.707 0.707 0.707 -196.026 158.127)" fill="#d8d4c9"/><path d="m375.687 50.89 19.73-19.73c4.978-4.978 4.978-13.049 0-18.027-4.978-4.978-13.049-4.978-18.027 0l-19.73 19.73z" fill="#e8e4d8"/><g><g><path d="m167.232 172.743c-4.842-4.842-12.985-3.812-16.421 2.112-13.46 23.203-10.265 53.417 9.601 73.283s50.079 23.061 73.283 9.601c5.923-3.436 6.954-11.579 2.112-16.421z" fill="#fe255f"/><path d="m174.63 180.141c-13.761 14.934-13.403 38.199 1.089 52.691s37.757 14.85 52.691 1.089z" fill="#fc9595"/><path d="m228.413 233.919c-14.934 13.762-38.202 13.399-52.689-1.088-2.344-2.344-4.317-4.917-5.915-7.645 14.152 8.321 32.524 6.703 45.038-4.834z" fill="#fd7574"/><path d="m233.688 257.74c-23.199 13.459-53.403 10.265-73.269-9.602-2.955-2.955-5.542-6.15-7.761-9.51 23.162 15.429 54.287 13.91 75.865-4.594l7.282 7.282c4.843 4.843 3.812 12.981-2.117 16.424z" fill="#e01152"/></g><g><path d="m123.991 340.359-55.801-55.801c-7.704-7.704-7.704-20.196 0-27.9l40.606-40.606c7.704-7.704 20.196-7.704 27.9 0l55.801 55.801c7.704 7.704 7.704 20.196 0 27.9l-40.606 40.606c-7.704 7.704-20.195 7.704-27.9 0z" fill="#b55434"/><path d="m167.471 246.825-21.844-21.844c-5.509-5.509-14.441-5.509-19.95 0-5.509 5.509-5.509 14.441 0 19.95l21.844 21.844c5.509 5.509 14.441 5.509 19.95 0 5.509-5.509 5.509-14.441 0-19.95z" fill="#db765a"/><path d="m192.498 299.756-40.602 40.602c-7.707 7.707-20.2 7.7-27.9 0l-34.066-34.066c24.294 7.149 51.636 1.137 70.803-18.03 8.719-8.719 14.717-19.139 17.989-30.181l13.776 13.776c7.701 7.7 7.708 20.192 0 27.899z" fill="#a1412b"/><g fill="#7f392c"><path d="m135.933 310.928c2.432 5.216 8.633 7.473 13.85 5.041l21.953-10.237c5.216-2.432 7.473-8.633 5.041-13.85-2.432-5.216-8.633-7.473-13.85-5.041l-21.953 10.237c-5.216 2.433-7.473 8.633-5.041 13.85z"/><path d="m112.935 287.93c2.432 5.216 8.633 7.473 13.85 5.041l21.953-10.237c5.216-2.432 7.473-8.633 5.041-13.85-2.432-5.216-8.633-7.473-13.85-5.041l-21.953 10.237c-5.216 2.433-7.473 8.634-5.041 13.85z"/><path d="m89.938 264.932c2.432 5.216 8.633 7.473 13.85 5.041l21.953-10.237c5.216-2.432 7.473-8.633 5.041-13.85-2.432-5.216-8.633-7.473-13.85-5.041l-21.953 10.237c-5.217 2.433-7.474 8.634-5.041 13.85z"/></g></g><g><path d="m334.265 130.085-55.801-55.801c-7.704-7.704-7.704-20.196 0-27.9l40.606-40.606c7.704-7.704 20.196-7.704 27.9 0l55.801 55.801c7.704 7.704 7.704 20.196 0 27.9l-40.606 40.606c-7.704 7.705-20.196 7.705-27.9 0z" fill="#b55434"/><path d="m377.744 36.552-21.844-21.844c-5.509-5.509-14.441-5.509-19.95 0-5.509 5.509-5.509 14.441 0 19.95l21.844 21.844c5.509 5.509 14.441 5.509 19.95 0 5.509-5.509 5.509-14.441 0-19.95z" fill="#db765a"/><path d="m402.772 89.483-40.602 40.602c-7.707 7.707-20.2 7.7-27.9 0l-34.066-34.066c24.294 7.149 51.636 1.137 70.803-18.03 8.719-8.719 14.717-19.139 17.989-30.181l13.776 13.776c7.7 7.699 7.707 20.191 0 27.899z" fill="#a1412b"/><g fill="#7f392c"><path d="m346.207 100.654c2.432 5.216 8.633 7.473 13.85 5.041l21.953-10.237c5.216-2.432 7.473-8.633 5.041-13.85-2.432-5.216-8.633-7.473-13.85-5.041l-21.953 10.237c-5.217 2.433-7.474 8.634-5.041 13.85z"/><path d="m323.209 77.656c2.432 5.216 8.633 7.473 13.85 5.041l21.953-10.237c5.216-2.432 7.473-8.633 5.041-13.85-2.432-5.216-8.633-7.473-13.85-5.041l-21.953 10.238c-5.217 2.432-7.473 8.633-5.041 13.849z"/><path d="m300.211 54.658c2.432 5.216 8.633 7.473 13.85 5.041l21.953-10.237c5.216-2.432 7.473-8.633 5.041-13.85-2.432-5.216-8.633-7.473-13.85-5.041l-21.953 10.237c-5.216 2.433-7.473 8.634-5.041 13.85z"/></g></g><g><path d="m246.936 217.414-55.801-55.801c-7.704-7.704-7.704-20.196 0-27.9l40.606-40.606c7.704-7.704 20.196-7.704 27.9 0l55.801 55.801c7.704 7.704 7.704 20.196 0 27.9l-40.606 40.606c-7.704 7.705-20.196 7.705-27.9 0z" fill="#b55434"/><path d="m290.415 123.881-21.844-21.844c-5.509-5.509-14.441-5.509-19.95 0-5.509 5.509-5.509 14.441 0 19.95l21.844 21.844c5.509 5.509 14.441 5.509 19.95 0 5.509-5.509 5.509-14.441 0-19.95z" fill="#db765a"/><path d="m315.443 176.812-40.602 40.602c-7.707 7.707-20.2 7.7-27.9 0l-34.066-34.066c24.294 7.149 51.636 1.137 70.803-18.03 8.719-8.719 14.717-19.139 17.989-30.181l13.776 13.776c7.7 7.699 7.707 20.191 0 27.899z" fill="#a1412b"/><g fill="#7f392c"><path d="m258.878 187.983c2.432 5.216 8.633 7.473 13.85 5.041l21.953-10.237c5.216-2.432 7.473-8.633 5.041-13.85-2.432-5.216-8.633-7.473-13.85-5.041l-21.953 10.237c-5.217 2.433-7.474 8.634-5.041 13.85z"/><path d="m235.88 164.985c2.432 5.217 8.633 7.473 13.85 5.041l21.953-10.237c5.216-2.432 7.473-8.633 5.041-13.85-2.432-5.216-8.633-7.473-13.85-5.041l-21.953 10.237c-5.217 2.433-7.473 8.634-5.041 13.85z"/><path d="m212.882 141.988c2.432 5.217 8.633 7.473 13.85 5.041l21.953-10.237c5.216-2.432 7.473-8.633 5.041-13.85-2.432-5.216-8.633-7.473-13.85-5.041l-21.953 10.237c-5.216 2.432-7.473 8.633-5.041 13.85z"/></g></g><path d="m245.697 251.204-78.348-78.348c-4.739-4.739-6.537-11.675-4.697-18.119l3.079-10.784c1.033-3.617 5.571-4.793 8.23-2.133l78.348 78.348c4.739 4.739 6.537 11.675 4.697 18.119l-3.079 10.784c-1.032 3.616-5.571 4.792-8.23 2.133z" fill="#29e088"/><path d="m220.991 188.849-24.56-24.56c-5.198-5.198-13.626-5.198-18.824 0-5.198 5.198-5.198 13.626 0 18.824l24.56 24.56c5.198 5.198 13.626 5.198 18.824 0 5.198-5.198 5.198-13.626 0-18.824z" fill="#79ff79"/><g><path d="m331.716 165.185-78.348-78.348c-4.739-4.739-6.537-11.675-4.697-18.119l3.079-10.784c1.033-3.617 5.571-4.793 8.23-2.133l78.348 78.348c4.739 4.739 6.537 11.675 4.697 18.119l-3.079 10.784c-1.033 3.616-5.571 4.792-8.23 2.133z" fill="#29e088"/><path d="m307.009 102.83-24.56-24.56c-5.198-5.198-13.626-5.198-18.824 0-5.198 5.198-5.198 13.626 0 18.824l24.56 24.56c5.198 5.198 13.626 5.198 18.824 0 5.199-5.198 5.199-13.626 0-18.824z" fill="#79ff79"/></g></g></g><g><path d="m398.577 198.846 84.74-84.74c4.978-4.978 13.049-4.978 18.027 0 4.978 4.978 4.978 13.049 0 18.027l-84.74 84.74z" fill="#e8e4d8"/><path d="m402.808 183.566h32.658v25.494h-32.658z" transform="matrix(0.707 -0.707 0.707 0.707 -16.052 353.873)" fill="#d8d4c9"/><path d="m154.34 479.138-19.73 19.73c-4.978 4.978-13.049 4.978-18.027 0-4.978-4.978-4.978-13.049 0-18.027l19.73-19.73z" fill="#e8e4d8"/><g><g><path d="m276.193 270.682c-4.842-4.842-3.812-12.985 2.112-16.421 23.203-13.46 53.417-10.265 73.283 9.601s23.061 50.079 9.601 73.283c-3.436 5.923-11.579 6.954-16.421 2.112z" fill="#fe255f"/><path d="m283.591 278.08c14.934-13.761 38.199-13.403 52.691 1.089s14.85 37.757 1.089 52.691z" fill="#fc9595"/><path d="m337.369 331.863c13.762-14.934 13.399-38.202-1.088-52.689-2.344-2.344-4.917-4.317-7.645-5.915 8.321 14.152 6.703 32.524-4.834 45.038z" fill="#fd7574"/><path d="m361.19 337.138c13.459-23.199 10.265-53.403-9.602-73.269-2.955-2.955-6.15-5.542-9.51-7.761 15.429 23.162 13.91 54.287-4.594 75.865l7.282 7.282c4.843 4.843 12.981 3.812 16.424-2.117z" fill="#e01152"/></g><g><path d="m443.809 227.442-55.801-55.801c-7.704-7.704-20.196-7.704-27.9 0l-40.606 40.606c-7.704 7.704-7.704 20.196 0 27.9l55.801 55.801c7.704 7.704 20.196 7.704 27.9 0l40.606-40.606c7.704-7.705 7.704-20.196 0-27.9z" fill="#b55434"/><path d="m350.275 270.921-21.844-21.844c-5.509-5.509-5.509-14.441 0-19.95 5.509-5.509 14.441-5.509 19.95 0l21.844 21.844c5.509 5.509 5.509 14.441 0 19.95-5.508 5.509-14.44 5.509-19.95 0z" fill="#db765a"/><path d="m403.206 295.948 40.602-40.602c7.707-7.707 7.7-20.2 0-27.9l-34.066-34.066c7.149 24.294 1.137 51.636-18.03 70.803-8.719 8.719-19.139 14.717-30.181 17.989l13.776 13.776c7.7 7.701 20.192 7.708 27.899 0z" fill="#a1412b"/><g fill="#7f392c"><path d="m414.378 239.383c5.216 2.432 7.473 8.633 5.041 13.85l-10.237 21.953c-2.432 5.216-8.633 7.473-13.85 5.041-5.216-2.432-7.473-8.633-5.041-13.85l10.237-21.953c2.433-5.216 8.633-7.473 13.85-5.041z"/><path d="m391.38 216.385c5.216 2.432 7.473 8.633 5.041 13.85l-10.237 21.953c-2.432 5.216-8.633 7.473-13.85 5.041-5.216-2.432-7.473-8.633-5.041-13.85l10.237-21.953c2.433-5.216 8.634-7.473 13.85-5.041z"/><path d="m368.382 193.388c5.216 2.432 7.473 8.633 5.041 13.85l-10.237 21.953c-2.432 5.216-8.633 7.473-13.85 5.041-5.216-2.432-7.473-8.633-5.041-13.85l10.237-21.953c2.433-5.217 8.634-7.474 13.85-5.041z"/></g></g><g><path d="m233.535 437.715-55.801-55.801c-7.704-7.704-20.196-7.704-27.9 0l-40.606 40.606c-7.704 7.704-7.704 20.196 0 27.9l55.801 55.801c7.704 7.704 20.196 7.704 27.9 0l40.606-40.606c7.705-7.704 7.705-20.195 0-27.9z" fill="#b55434"/><path d="m140.002 481.194-21.844-21.844c-5.509-5.509-5.509-14.441 0-19.95 5.509-5.509 14.441-5.509 19.95 0l21.844 21.844c5.509 5.509 5.509 14.441 0 19.95-5.509 5.509-14.441 5.509-19.95 0z" fill="#db765a"/><path d="m192.933 506.222 40.602-40.602c7.707-7.707 7.7-20.2 0-27.9l-34.066-34.066c7.149 24.294 1.137 51.636-18.03 70.803-8.719 8.719-19.139 14.717-30.181 17.989l13.776 13.776c7.699 7.7 20.191 7.707 27.899 0z" fill="#a1412b"/><g fill="#7f392c"><path d="m204.104 449.657c5.217 2.432 7.473 8.633 5.041 13.85l-10.237 21.953c-2.432 5.216-8.633 7.473-13.85 5.041-5.216-2.432-7.473-8.633-5.041-13.85l10.237-21.953c2.433-5.217 8.634-7.474 13.85-5.041z"/><path d="m181.106 426.659c5.217 2.432 7.473 8.633 5.041 13.85l-10.237 21.953c-2.432 5.216-8.633 7.473-13.85 5.041-5.216-2.432-7.473-8.633-5.041-13.85l10.237-21.953c2.433-5.216 8.634-7.473 13.85-5.041z"/><path d="m158.109 403.661c5.216 2.432 7.473 8.633 5.041 13.85l-10.237 21.953c-2.432 5.216-8.633 7.473-13.85 5.041-5.216-2.432-7.473-8.633-5.041-13.85l10.237-21.953c2.432-5.216 8.633-7.473 13.85-5.041z"/></g></g><g><path d="m320.864 350.386-55.801-55.801c-7.704-7.704-20.196-7.704-27.9 0l-40.606 40.606c-7.704 7.704-7.704 20.196 0 27.9l55.801 55.801c7.704 7.704 20.196 7.704 27.9 0l40.606-40.606c7.705-7.704 7.705-20.195 0-27.9z" fill="#b55434"/><path d="m227.331 393.865-21.844-21.844c-5.509-5.509-5.509-14.441 0-19.95 5.509-5.509 14.441-5.509 19.95 0l21.844 21.844c5.509 5.509 5.509 14.441 0 19.95-5.509 5.509-14.441 5.509-19.95 0z" fill="#db765a"/><path d="m280.262 418.893 40.602-40.602c7.707-7.707 7.7-20.2 0-27.9l-34.066-34.066c7.149 24.294 1.137 51.636-18.03 70.803-8.719 8.719-19.139 14.717-30.181 17.989l13.776 13.776c7.699 7.7 20.191 7.707 27.899 0z" fill="#a1412b"/><g fill="#7f392c"><path d="m291.433 362.328c5.216 2.432 7.473 8.633 5.041 13.85l-10.237 21.953c-2.432 5.216-8.633 7.473-13.85 5.041-5.216-2.432-7.473-8.633-5.041-13.85l10.237-21.953c2.433-5.217 8.634-7.474 13.85-5.041z"/><path d="m268.435 339.33c5.216 2.432 7.473 8.633 5.041 13.85l-10.237 21.953c-2.432 5.216-8.633 7.473-13.85 5.041-5.216-2.432-7.473-8.633-5.041-13.85l10.237-21.953c2.433-5.217 8.634-7.473 13.85-5.041z"/><path d="m245.438 316.332c5.216 2.432 7.473 8.633 5.041 13.85l-10.237 21.953c-2.432 5.216-8.633 7.473-13.85 5.041-5.216-2.432-7.473-8.633-5.041-13.85l10.237-21.953c2.432-5.216 8.633-7.473 13.85-5.041z"/></g></g><path d="m354.654 349.147-78.348-78.348c-4.739-4.739-11.675-6.537-18.119-4.697l-10.784 3.079c-3.617 1.033-4.793 5.571-2.133 8.23l78.348 78.348c4.739 4.739 11.675 6.537 18.119 4.697l10.784-3.079c3.616-1.032 4.792-5.57 2.133-8.23z" fill="#29e088"/><path d="m292.299 324.441-24.56-24.56c-5.198-5.198-5.198-13.626 0-18.824 5.198-5.198 13.626-5.198 18.824 0l24.56 24.56c5.198 5.198 5.198 13.626 0 18.824-5.198 5.198-13.626 5.198-18.824 0z" fill="#79ff79"/><g><path d="m268.635 435.166-78.348-78.348c-4.739-4.739-11.675-6.537-18.119-4.697l-10.784 3.079c-3.617 1.033-4.793 5.571-2.133 8.23l78.348 78.348c4.739 4.739 11.675 6.537 18.119 4.697l10.784-3.079c3.616-1.032 4.792-5.57 2.133-8.23z" fill="#29e088"/><path d="m206.28 410.46-24.56-24.56c-5.198-5.198-5.198-13.626 0-18.824 5.198-5.198 13.626-5.198 18.824 0l24.56 24.56c5.198 5.198 5.198 13.626 0 18.824-5.198 5.198-13.626 5.198-18.824 0z" fill="#79ff79"/></g></g></g></g><g transform="matrix(0.09253150969743729 0 0 0.09253150969743729 108.31193363763441 119.31094151498286)" id="L1_10"><path d="m23.741 246.817 56.623 16.793 56.506-16.793c.818-5.666.701-11.653-.613-17.844-1.197-5.783-3.446-11.74-6.892-17.786-2.716-4.76-6.687-10.163-11.564-15.742-22.544-25.876-64.128-55.49-86.263-42.902-21.726 12.383-18.076 61.623-7.797 94.274z" fill="#f9f6f6"/><path d="m197.671 105.265-17.585-.443-52.241-1.288c-3.008-.082-5.491-2.071-5.491-4.553v-22.633h68.631c8.653.927 13.094 3.678 14.453 7.726 1.762 5.254-1.648 12.692-7.767 21.191z" fill="#e29d7b"/><path d="m324.552 108.444 181.958 4.556c3.008.088 5.49-2.044 5.49-4.556v-32.097h-200.385c-8.381 7.827-11.827 22.459 6.191 31.95z" fill="#e29d7b"/><path d="m512 44.227v32.121h-389.645v-22.633c0-2.514 2.483-4.502 5.491-4.554l378.664-9.498c3.007-.082 5.49 2.05 5.49 4.564z" fill="#e29d7b"/><path d="m56.126 246.817h49.906c1.927-6.542 1.285-13.785-2.365-20.181-7.096-12.471-22.953-16.851-35.451-9.725-10.688 6.075-15.419 18.604-12.09 29.906z" fill="#ffd772"/><path d="m184.44 246.817c.876-5.228 9.724-5.695 13.375-11.828 19.244-32.272-7.709-54.614-7.213-81.891-.029-2.424-5.87-4.76-5.548-7.038-2.103-1.168-4.293-2.015-6.629-2.482-20.879-4.176-45.409 24.007-60.624 51.868-6.629 11.127 9.286 51.372 16.47 51.372l26.238 16.793z" fill="#f9f6f6"/><path d="m122.006 436.388 95.754 17.961 95.783-17.961c42.927-18.02 77.006-53.299 93.388-97.049l-181.199-23.364-197.114 23.364c16.382 43.749 50.461 79.029 93.388 97.049z" fill="#fbc7b8"/><path d="m415.894 246.822-64.304 20.295-46.513-20.295c-10.93-19.635-2.575-26.548 12.702-48.985 2.05-.979 4.11-1.885 6.191-2.71 7.52-3.008 15.175-4.996 22.808-5.924 0 0 .01-.01.01 0 12.311-1.494 24.518-.185 35.84 4.172 1.844.701 3.657 1.484 5.439 2.359 16.907 8.243 32.71 23.86 27.827 51.088z" fill="#e29d7b"/><path d="m313.543 436.388c42.927-18.02 77.006-53.299 93.388-97.049h-41.116c-16.412 43.749-50.461 79.029-93.388 97.049z" fill="#fbb49e"/><path d="m117.801 195.446c-22.544-25.876-64.128-55.49-86.263-42.902-3.3 1.869-6.016 4.614-8.206 8.002 23.04-5.228 59.572 21.553 80.189 45.239 4.877 5.549 8.848 10.952 11.564 15.712 3.417 6.045 5.665 12.003 6.892 17.815.526 2.541.876 5.052 1.022 7.506h13.871c.818-5.666.701-11.653-.613-17.844-1.197-5.783-3.446-11.74-6.892-17.786-2.716-4.761-6.687-10.164-11.564-15.742z" fill="#e5e4ed"/><path d="m184.616 153.098c-.029-.263-.029-.526-.029-.789-.001.264-.001.526.029.789zm6.366 76.781c19.244-32.272-6.892-49.473-6.366-76.78-.029-.263-.029-.526-.029-.789 0-.35 0-.701.029-1.081.029-1.752.204-3.475.438-5.169-2.103-1.168-4.293-2.015-6.629-2.482-3.183-.643-6.454-.526-9.753.234-.088 1.314-.146 2.658-.117 4.03-.496 26.781 24.617 43.837 7.447 74.94 6.191 6.016 9.9 15.128 8.439 24.036.875-5.228 2.89-10.806 6.541-16.939z" fill="#e5e4ed"/><path d="m103.667 226.637c-7.096-12.471-22.953-16.851-35.451-9.725-3.533 2.015-6.454 4.731-8.615 7.915 11.301-3.271 23.741 1.489 29.786 12.12 1.781 3.154 2.862 6.513 3.241 9.871h13.404c1.928-6.542 1.286-13.785-2.365-20.181z" fill="#fbba58"/><path d="m415.896 246.817c4.877-27.219-10.922-42.844-27.83-51.08-1.781-.876-3.592-1.665-5.432-2.366-4.643-1.782-9.461-3.067-14.338-3.826 16.178 9.638 30.691 27.307 25.99 57.271h21.61z" fill="#ce8b6b"/><path d="m136.87 246.817h47.57c2.278-13.785-7.855-28.095-20.412-30.578-12.557-2.512-22.398 3.213-27.771 12.733 1.314 6.193 1.431 12.18.613 17.845z" fill="#ffd772"/><path d="m184.44 246.817c1.46-8.908-2.249-18.02-8.439-24.036-3.387-3.3-7.534-5.666-11.973-6.542-7.125-1.431-13.345-.204-18.397 2.833 2.395-.146 21.58 15.099 21.288 27.745z" fill="#fbba58"/><path d="m28.618 339.339h378.313c6.892-18.37 10.659-38.229 10.659-58.907l-188.967-13.318-210.664 13.319c0 20.677 3.767 40.536 10.659 58.906z" fill="#f37c7c"/><path d="m406.931 339.339c6.892-18.37 10.659-38.229 10.659-58.907h-39.948-1.197c0 20.677-3.767 40.537-10.63 58.907z" fill="#ee6161"/><path d="m136.87 246.817h-30.837-49.907-32.385-6.95c-9.228 0-16.791 7.565-16.791 16.793 0 9.258 7.563 16.822 16.791 16.822h1.168 399.63 1.168c9.228 0 16.791-7.564 16.791-16.822 0-9.229-7.563-16.793-16.791-16.793h-2.862-110.821-30.166-30.137-30.166-30.165z" fill="#365e7d"/><path d="m435.549 263.61c0-9.229-7.563-16.793-16.791-16.793h-2.862-38.255c9.228 0 16.791 7.564 16.791 16.793 0 9.258-7.563 16.822-16.791 16.822h39.948 1.168c9.229.001 16.792-7.564 16.792-16.822z" fill="#2b4d66"/><path d="m184.44 246.817h39.773c.876-5.228 2.891-10.806 6.57-16.939 19.215-32.272-6.892-49.473-6.395-76.78-.496-27.278 25.61-44.509 6.395-76.751h-39.802c17.521 29.38-2.599 46.29-5.928 69.713-.234 1.694-.409 3.417-.438 5.169-.029.643-.029 1.256 0 1.869-.526 27.307 25.61 44.509 6.366 76.78-3.65 6.134-5.665 11.712-6.541 16.939z" fill="#ffd772"/><path d="m235.135 246.817h49.41c.876-5.228 2.891-10.806 6.541-16.939 19.244-32.272-6.862-49.473-6.366-76.78-.496-27.278 25.61-44.509 6.366-76.751h-49.41c19.244 32.242-6.892 49.473-6.395 76.751-.496 27.307 25.639 44.509 6.395 76.78-3.65 6.134-5.665 11.712-6.541 16.939z" fill="#ffd772"/><path d="m274.908 246.817h30.166c.876-5.228 2.891-10.806 6.541-16.939 7.417-12.441 8.089-22.634 6.162-32.038-3.095-14.982-12.849-27.949-12.528-44.742-.321-16.735 9.403-29.672 12.499-44.655 1.957-9.404 1.314-19.626-6.132-32.096h-30.137c19.215 32.242-6.892 49.473-6.395 76.751-.496 27.307 25.61 44.509 6.395 76.78-3.68 6.134-5.695 11.712-6.571 16.939z" fill="#fbba58"/><path d="m214.606 246.817h30.166c.847-5.228 2.891-10.806 6.541-16.939 19.215-32.272-6.892-49.473-6.395-76.78-.496-27.278 25.61-44.509 6.395-76.751h-30.166c19.215 32.242-6.892 49.473-6.395 76.751-.496 27.307 25.61 44.509 6.395 76.78-3.65 6.134-5.665 11.712-6.541 16.939z" fill="#fbba58"/><path d="m126.445 472.339h182.659c2.453 0 4.439-1.986 4.439-4.439v-31.512h-191.537v31.512c0 2.453 1.986 4.439 4.439 4.439z" fill="#f37c7c"/><path d="m313.543 467.9v-31.512h-41.117v31.512c0 2.453-2.015 4.439-4.439 4.439h41.117c2.453 0 4.439-1.986 4.439-4.439z" fill="#ee6161"/><path d="m359.77 223.149c-.628.165-1.257.237-1.875.237-3.461 0-6.614-2.349-7.489-5.852-2.73-10.909-6.619-14.958-18.044-19.481-2.277-.907-5.408-2.447-8.391-2.926 7.52-3.008 15.175-4.996 22.808-5.924 0 0 .01-.01.01 0 8.478 4.626 15.288 11.291 18.605 24.58 1.041 4.143-1.483 8.335-5.624 9.366z" fill="#ce8b6b"/><path d="m65.187 317.62c-1.969 0-3.937-.751-5.442-2.256l-.029-.029c-3.018-3.017-3.018-7.909 0-10.927 3.017-3.017 7.909-3.017 10.927 0s3.032 7.924.015 10.941c-1.513 1.512-3.493 2.271-5.471 2.271z" fill="#ffd772"/><path d="m116.057 317.62c-1.969 0-3.937-.751-5.442-2.256l-.029-.029c-3.018-3.017-3.018-7.909 0-10.927 3.017-3.017 7.909-3.017 10.927 0s3.032 7.924.015 10.941c-1.513 1.512-3.493 2.271-5.471 2.271z" fill="#ffd772"/><path d="m166.897 317.62c-1.969 0-3.937-.751-5.442-2.256l-.029-.029c-3.018-3.017-3.018-7.909 0-10.927 3.017-3.017 7.909-3.017 10.927 0s3.032 7.924.015 10.941c-1.512 1.512-3.492 2.271-5.471 2.271z" fill="#ffd772"/><path d="m217.768 317.62c-1.969 0-3.937-.751-5.442-2.256l-.029-.029c-3.018-3.017-3.018-7.909 0-10.927 3.017-3.017 7.909-3.017 10.927 0s3.032 7.924.015 10.941c-1.513 1.512-3.493 2.271-5.471 2.271z" fill="#ffd772"/><path d="m268.637 317.62c-1.969 0-3.937-.751-5.442-2.256l-.029-.029c-3.018-3.017-3.018-7.909 0-10.927 3.017-3.017 7.909-3.017 10.927 0s3.032 7.924.015 10.941c-1.512 1.512-3.492 2.271-5.471 2.271z" fill="#ffd772"/><path d="m319.478 317.62c-1.969 0-3.937-.751-5.442-2.256l-.029-.029c-3.018-3.017-3.018-7.909 0-10.927 3.017-3.017 7.909-3.017 10.927 0s3.032 7.924.015 10.941c-1.512 1.512-3.492 2.271-5.471 2.271z" fill="#ffd772"/><path d="m370.348 317.62c-1.969 0-3.937-.751-5.442-2.256l-.029-.029c-3.018-3.017-3.018-7.909 0-10.927 3.017-3.017 7.909-3.017 10.927 0s3.032 7.924.015 10.941c-1.513 1.512-3.493 2.271-5.471 2.271z" fill="#ffd772"/><path d="m512 68.622h-389.645v7.726 7.726h83.084 100.741 205.82z" fill="#ce8b6b"/></g><g transform="matrix(0.11441990733146667 0 0 0.11441990733146667 272.5666522048414 117.8241425224785)" id="L1_16"><g><path d="m443.998 302.609c12.67-14.152 12.667-35.547 0-49.696 5.904-6.594 9.498-15.3 9.498-24.848 0-34.313-42.616-50.271-65.226-24.64-14.865-16.852-41.058-16.835-55.908 0-14.865-16.852-41.058-16.835-55.908 0-14.865-16.852-41.012-16.794-55.862.041l-20 20 .001 158.286 20 20c14.865 16.852 41.011 16.877 55.861.042 14.865 16.852 41.058 16.835 55.908 0 14.865 16.852 41.058 16.835 55.908 0 22.603 25.624 65.226 9.688 65.226-24.64 0-9.548-3.594-18.254-9.498-24.848 12.67-14.153 12.667-35.548 0-49.697z" fill="#efedff"/><path d="m220.593 352.304c-12.111-13.99-12.114-35.702 0-49.696-12.111-13.99-12.114-35.702 0-49.695-11.577-13.376-12.659-35.212 0-49.448-14.865-16.852-41.104-16.876-55.954-.041-14.865-16.852-41.058-16.835-55.908 0-22.603-25.624-65.226-9.687-65.226 24.64 0 9.548 3.594 18.254 9.498 24.848-12.67 14.152-12.667 35.548 0 49.696-12.67 14.152-12.667 35.547 0 49.696-5.904 6.594-9.498 15.3-9.498 24.848 0 34.313 42.616 50.271 65.226 24.64 14.865 16.852 41.058 16.835 55.908 0 14.865 16.852 41.105 16.793 55.955-.042-12.609-14.176-11.63-36.01-.001-49.446z" fill="#d4d4ff"/></g><g><g><path d="m479.427 178.222c-19.982-19.982-42.114-37.059-66.109-51.088l-49.989 33.657 30 101.069c27.293 26.842 64.45 22.863 86.098 1.215 23.43-23.432 23.43-61.422 0-84.853z" fill="#ffdbe0"/><path d="m41.428 277.696c20.774 6.744 44.495 1.881 60.999-14.622 21.764-21.764 47.531-38.066 75.637-48.234l87.506-33.286 22.26 24.743c39.637 7.599 76.129 26.671 105.499 55.562-2.96-46.943 4.341-92.64 19.989-134.726-21.909-12.81-45.767-23.341-71.46-31.004l-35.993 14.561-31.434-27.089c-24.396-1.916-49.408-1.228-75.182 2.676l-157.821 81.221z" fill="#ffb5c0"/></g><g fill="#ff8e9e"><path d="m199.25 86.277c-66.655 10.096-130.677 40.945-181.677 91.945-23.431 23.431-23.431 61.421 0 84.853 6.928 6.928 15.134 11.791 23.855 14.622 29.292-80.301 85.425-147.878 157.822-191.42z"/><path d="m341.858 96.129c-21.964-6.551-44.504-10.729-67.426-12.528-26.858 22.74-50.054 49.321-69.138 79.344-10.576 16.637-19.662 33.969-27.229 51.895 35.14-12.713 73.314-15.531 109.766-8.542 4.411-15.778 9.99-31.278 16.743-46.428 10.134-22.74 22.613-44.043 37.284-63.741z"/></g></g><g fill="#ff8e9e"><ellipse cx="168px" cy="332px" rx="29px" ry="23px"/><ellipse cx="328px" cy="332px" rx="29px" ry="23px"/></g><g fill="#313d40"><path d="m186.051 290.151c-4.143 0-7.5 3.358-7.5 7.5v12c0 4.142 3.357 7.5 7.5 7.5s7.5-3.358 7.5-7.5v-12c0-4.142-3.358-7.5-7.5-7.5z"/><path d="m310.948 290.151c-4.143 0-7.5 3.358-7.5 7.5v12c0 4.142 3.357 7.5 7.5 7.5s7.5-3.358 7.5-7.5v-12c0-4.142-3.357-7.5-7.5-7.5z"/><path d="m269.891 303.639c-3.125-2.721-7.861-2.396-10.582.727-2.729 3.132-6.669 4.928-10.81 4.928s-8.08-1.796-10.81-4.928c-2.723-3.123-7.46-3.447-10.582-.727-3.122 2.722-3.448 7.459-.727 10.582 5.579 6.401 13.641 10.073 22.118 10.073s16.539-3.671 22.118-10.073c2.724-3.123 2.397-7.86-.725-10.582z"/></g><g><circle cx="161" cy="255" r="7" fill="#9ea2e3"/><circle cx="191" cy="382" r="7" fill="#9ea2e3"/><g fill="#d4d4ff"><circle cx="241" cy="352" r="7"/><circle cx="331" cy="372" r="7"/><circle cx="401" cy="325" r="7"/><circle cx="419" cy="379" r="7"/><circle cx="269" cy="242" r="7"/></g><circle cx="101" cy="350" r="7" fill="#9ea2e3"/></g></g></defs><g fi:class="KUsePattern"><pattern id="pattern_L1_3" width="350" height="350" patternUnits="userSpaceOnUse"><use xlink:href="#L1_3" x="-350" y="-350"/><use xlink:href="#L1_3" x="0" y="-350"/><use xlink:href="#L1_3" x="350" y="-350"/><use xlink:href="#L1_3" x="-350" y="0"/><use xlink:href="#L1_3" x="0" y="0"/><use xlink:href="#L1_3" x="350" y="0"/><use xlink:href="#L1_3" x="-350" y="350"/><use xlink:href="#L1_3" x="0" y="350"/><use xlink:href="#L1_3" x="350" y="350"/></pattern><rect x="0" y="0" width="100%" height="100%" fill="url(#pattern_L1_3)"/></g><g fi:class="KUsePattern"><pattern id="pattern_L1_4" width="350" height="350" patternUnits="userSpaceOnUse"><use xlink:href="#L1_4" x="-350" y="-350"/><use xlink:href="#L1_4" x="0" y="-350"/><use xlink:href="#L1_4" x="350" y="-350"/><use xlink:href="#L1_4" x="-350" y="0"/><use xlink:href="#L1_4" x="0" y="0"/><use xlink:href="#L1_4" x="350" y="0"/><use xlink:href="#L1_4" x="-350" y="350"/><use xlink:href="#L1_4" x="0" y="350"/><use xlink:href="#L1_4" x="350" y="350"/></pattern><rect x="0" y="0" width="100%" height="100%" fill="url(#pattern_L1_4)"/></g><g fi:class="KUsePattern"><pattern id="pattern_L1_5" width="350" height="350" patternUnits="userSpaceOnUse"><use xlink:href="#L1_5" x="-350" y="-350"/><use xlink:href="#L1_5" x="0" y="-350"/><use xlink:href="#L1_5" x="350" y="-350"/><use xlink:href="#L1_5" x="-350" y="0"/><use xlink:href="#L1_5" x="0" y="0"/><use xlink:href="#L1_5" x="350" y="0"/><use xlink:href="#L1_5" x="-350" y="350"/><use xlink:href="#L1_5" x="0" y="350"/><use xlink:href="#L1_5" x="350" y="350"/></pattern><rect x="0" y="0" width="100%" height="100%" fill="url(#pattern_L1_5)"/></g><g fi:class="KUsePattern"><pattern id="pattern_L1_6" width="350" height="350" patternUnits="userSpaceOnUse"><use xlink:href="#L1_6" x="-350" y="-350"/><use xlink:href="#L1_6" x="0" y="-350"/><use xlink:href="#L1_6" x="350" y="-350"/><use xlink:href="#L1_6" x="-350" y="0"/><use xlink:href="#L1_6" x="0" y="0"/><use xlink:href="#L1_6" x="350" y="0"/><use xlink:href="#L1_6" x="-350" y="350"/><use xlink:href="#L1_6" x="0" y="350"/><use xlink:href="#L1_6" x="350" y="350"/></pattern><rect x="0" y="0" width="100%" height="100%" fill="url(#pattern_L1_6)"/></g><g fi:class="KUsePattern"><pattern id="pattern_L1_10" width="350" height="350" patternUnits="userSpaceOnUse"><use xlink:href="#L1_10" x="-350" y="-350"/><use xlink:href="#L1_10" x="0" y="-350"/><use xlink:href="#L1_10" x="350" y="-350"/><use xlink:href="#L1_10" x="-350" y="0"/><use xlink:href="#L1_10" x="0" y="0"/><use xlink:href="#L1_10" x="350" y="0"/><use xlink:href="#L1_10" x="-350" y="350"/><use xlink:href="#L1_10" x="0" y="350"/><use xlink:href="#L1_10" x="350" y="350"/></pattern><rect x="0" y="0" width="100%" height="100%" fill="url(#pattern_L1_10)"/></g><g fi:class="KUsePattern"><pattern id="pattern_L1_16" width="350" height="350" patternUnits="userSpaceOnUse"><use xlink:href="#L1_16" x="-350" y="-350"/><use xlink:href="#L1_16" x="0" y="-350"/><use xlink:href="#L1_16" x="350" y="-350"/><use xlink:href="#L1_16" x="-350" y="0"/><use xlink:href="#L1_16" x="0" y="0"/><use xlink:href="#L1_16" x="350" y="0"/><use xlink:href="#L1_16" x="-350" y="350"/><use xlink:href="#L1_16" x="0" y="350"/><use xlink:href="#L1_16" x="350" y="350"/></pattern><rect x="0" y="0" width="100%" height="100%" fill="url(#pattern_L1_16)"/></g></svg>