<?xml version="1.0" encoding="UTF-8"?>
<svg xmlns="http://www.w3.org/2000/svg" viewBox="0 0 512 512" width="512" height="512"><g id="outline"><path d="M458,80H54a38.043,38.043,0,0,0-38,38V394a38.043,38.043,0,0,0,38,38H458a38.043,38.043,0,0,0,38-38V118A38.043,38.043,0,0,0,458,80ZM144,416V310.372a87.9,87.9,0,0,0,80,0V416Zm288-78a29.871,29.871,0,0,1-1.432,9.151,47.422,47.422,0,0,1-8.1-2.6,62.251,62.251,0,0,0-46.724,0,46.266,46.266,0,0,1-35.062,0,62.238,62.238,0,0,0-46.719,0,46.259,46.259,0,0,1-35.059,0,55.144,55.144,0,0,0-18.9-4.421V324.16a40.212,40.212,0,0,1,13.074,3.29,62.238,62.238,0,0,0,46.719,0,46.259,46.259,0,0,1,35.059,0,62.246,62.246,0,0,0,46.722,0,46.272,46.272,0,0,1,35.064,0A55.993,55.993,0,0,0,432,331.568Zm-9.532-25.45a62.251,62.251,0,0,0-46.724,0,46.266,46.266,0,0,1-35.062,0,62.238,62.238,0,0,0-46.719,0,46.256,46.256,0,0,1-35.058,0,55.156,55.156,0,0,0-18.9-4.421v-8.3a88.875,88.875,0,0,0,7.032-6.493,58.429,58.429,0,0,1,6.042,2.11,62.238,62.238,0,0,0,46.719,0,46.259,46.259,0,0,1,35.059,0,62.246,62.246,0,0,0,46.722,0,46.272,46.272,0,0,1,35.064,0A55.993,55.993,0,0,0,432,299.568v15.848A43.843,43.843,0,0,1,422.468,312.55ZM192,248a18.329,18.329,0,0,1-10.222-3.1L168,235.719v-12.9A27.18,27.18,0,0,0,179.316,216l2.34-2.34A8,8,0,0,0,184,208v-7.709a19.469,19.469,0,0,1,10.343,5.366A8,8,0,0,0,200,208h51.872a71.779,71.779,0,0,1,.178,47.474,139.809,139.809,0,0,1-32.289-6.653l-1.23-.41a8,8,0,0,0-10.12,5.059L202.234,272H200V256A8,8,0,0,0,192,248Zm72.511,19.5c.083-.163.161-.328.233-.5a62.8,62.8,0,0,0,11.689.993,56.076,56.076,0,0,0,23.36-4.55,46.259,46.259,0,0,1,35.059,0,62.246,62.246,0,0,0,46.722,0,46.272,46.272,0,0,1,35.064,0A55.993,55.993,0,0,0,432,267.568v15.848a43.843,43.843,0,0,1-9.532-2.866,62.251,62.251,0,0,0-46.724,0,46.266,46.266,0,0,1-35.062,0,62.238,62.238,0,0,0-46.719,0,46.256,46.256,0,0,1-35.058,0c-.4-.158-.815-.319-1.232-.48A87.83,87.83,0,0,0,264.511,267.505ZM432,251.416a43.843,43.843,0,0,1-9.532-2.866,62.251,62.251,0,0,0-46.724,0,46.266,46.266,0,0,1-35.062,0,62.238,62.238,0,0,0-46.719,0,40.752,40.752,0,0,1-17.53,3.45,52.483,52.483,0,0,1-6.639-.384,87.828,87.828,0,0,0,2.117-15.76c1.454.086,2.946.144,4.522.144a56.076,56.076,0,0,0,23.36-4.55,46.259,46.259,0,0,1,35.059,0,62.246,62.246,0,0,0,46.722,0,46.272,46.272,0,0,1,35.064,0A55.957,55.957,0,0,0,432,235.568Zm-9.532-34.866a62.251,62.251,0,0,0-46.724,0,46.266,46.266,0,0,1-35.062,0,62.238,62.238,0,0,0-46.719,0,40.752,40.752,0,0,1-17.53,3.45c-1.909,0-3.652-.087-5.289-.243a87.325,87.325,0,0,0-3.913-16.342,67.6,67.6,0,0,0,9.2.585,56.076,56.076,0,0,0,23.36-4.55,46.259,46.259,0,0,1,35.059,0,62.246,62.246,0,0,0,46.722,0,46.272,46.272,0,0,1,35.064,0A55.957,55.957,0,0,0,432,203.568v15.848A43.843,43.843,0,0,1,422.468,216.55ZM432,174v13.416a43.843,43.843,0,0,1-9.532-2.866,62.251,62.251,0,0,0-46.724,0,46.266,46.266,0,0,1-35.062,0,62.238,62.238,0,0,0-46.719,0,46.256,46.256,0,0,1-35.058,0,8.051,8.051,0,0,0-1.032-.317A88.717,88.717,0,0,0,240,164.167v-.007a40.263,40.263,0,0,1,13.074,3.29,62.238,62.238,0,0,0,46.719,0,46.259,46.259,0,0,1,35.059,0,62.246,62.246,0,0,0,46.722,0,46.272,46.272,0,0,1,35.064,0,56.24,56.24,0,0,0,15.254,4.1C431.957,172.361,432,173.176,432,174ZM243.833,192H203.064a35.594,35.594,0,0,0-22.374-8H176a8,8,0,0,0-8,8v12.686A11.245,11.245,0,0,1,160,208a8,8,0,0,0-8,8v24a8,8,0,0,0,3.562,6.656L172.9,258.213a34.257,34.257,0,0,0,11.1,4.85V280a8,8,0,0,0,8,8h16a8,8,0,0,0,7.589-5.47l5.516-16.548a155.623,155.623,0,0,0,23.514,4.793A71.989,71.989,0,1,1,243.833,192ZM96.022,233.762a87.9,87.9,0,0,0,1.722,15.7c-.791-.293-1.577-.6-2.385-.916A55.968,55.968,0,0,0,80,244.432V228.584a43.822,43.822,0,0,1,9.528,2.866C91.47,232.209,93.574,233.031,96.022,233.762ZM89.529,263.45a57.185,57.185,0,0,0,13.905,3.929A88,88,0,0,0,113.053,284h-.165a40.75,40.75,0,0,1-17.529-3.45A55.978,55.978,0,0,0,80,276.432V260.584A43.815,43.815,0,0,1,89.529,263.45Zm7.709-46.173c-.616-.234-1.238-.476-1.88-.727A55.97,55.97,0,0,0,80,212.432V196.584a43.849,43.849,0,0,1,9.529,2.866,60.468,60.468,0,0,0,11.4,3.513A87.3,87.3,0,0,0,97.238,217.277ZM80,338V324.584a43.815,43.815,0,0,1,9.529,2.866A56.074,56.074,0,0,0,112.888,332,58.764,58.764,0,0,0,128,330.255v15.222A39.444,39.444,0,0,1,112.888,348a40.75,40.75,0,0,1-17.529-3.45,56.122,56.122,0,0,0-15.251-4.107C80.042,339.637,80,338.823,80,338Zm48-24.523A39.421,39.421,0,0,1,112.888,316a40.75,40.75,0,0,1-17.529-3.45A55.978,55.978,0,0,0,80,308.432V292.584a43.815,43.815,0,0,1,9.529,2.866A56.074,56.074,0,0,0,112.888,300a60.03,60.03,0,0,0,13.661-1.395q.719.622,1.451,1.228Zm0-160A39.421,39.421,0,0,1,112.888,156a40.747,40.747,0,0,1-17.529-3.45c-1.4-.549-2.864-1.12-4.461-1.665A29.863,29.863,0,0,1,110,144h18ZM80,174a29.87,29.87,0,0,1,1.432-9.15,47.569,47.569,0,0,1,8.1,2.6A56.074,56.074,0,0,0,112.888,172a70.977,70.977,0,0,0,7.12-.342A88.564,88.564,0,0,0,107.934,187.8a40.378,40.378,0,0,1-12.575-3.245A55.989,55.989,0,0,0,80,180.432Zm9.529,185.45A56.074,56.074,0,0,0,112.888,364,58.758,58.758,0,0,0,128,362.254V368H110a29.907,29.907,0,0,1-21.263-8.859ZM240,356.16a40.212,40.212,0,0,1,13.074,3.29,62.238,62.238,0,0,0,46.719,0,46.259,46.259,0,0,1,35.059,0,62.246,62.246,0,0,0,46.722,0,46.272,46.272,0,0,1,35.064,0c1.394.546,2.862,1.117,4.466,1.663A29.861,29.861,0,0,1,402,368H240ZM422.468,152.55a62.251,62.251,0,0,0-46.724,0,46.266,46.266,0,0,1-35.062,0,62.238,62.238,0,0,0-46.719,0,46.259,46.259,0,0,1-35.059,0,55.144,55.144,0,0,0-18.9-4.421V144H402a29.9,29.9,0,0,1,21.264,8.861ZM224,148.954a50.869,50.869,0,0,0-6.534,1.663,88.007,88.007,0,0,0-59.991-2.529c-.021,0-.037,0-.058-.006-1.17-.055-2.4-.082-3.642-.082a66.593,66.593,0,0,0-9.775.666V96h80ZM32,394V118A22.025,22.025,0,0,1,54,96h74v32H110a46.052,46.052,0,0,0-46,46V338a46.052,46.052,0,0,0,46,46h18v32H54A22.025,22.025,0,0,1,32,394Zm448,0a22.025,22.025,0,0,1-22,22H240V384H402a46.053,46.053,0,0,0,46-46V174a46.053,46.053,0,0,0-46-46H240V96H458a22.025,22.025,0,0,1,22,22Z"/><circle cx="192" cy="221" r="5"/><path d="M168,352h16a8,8,0,0,0,0-16H168a8,8,0,0,0,0,16Z"/><path d="M200,368H168a8,8,0,0,0,0,16h32a8,8,0,0,0,0-16Z"/></g></svg>
