<svg id="Capa_1" enable-background="new 0 0 512 512" height="512" viewBox="0 0 512 512" width="512" xmlns="http://www.w3.org/2000/svg"><g><path d="m464.135 170.66c-1.033-14.155-2.452-28.196-4.29-42.158-3.542-26.891-11.417-43.345-22.773-47.586-2.395-.895-4.842-1.193-7.229-.931-4.165-18.613-8.31-29.765-17.64-30.201-9.299-1.062-15.167 9.283-22.251 26.991-2.313-.638-4.773-.735-7.275-.237-11.893 2.367-22.299 17.347-30.091 43.315-4.058 13.501-7.712 27.148-11.005 40.971-34.854 56.962-60.304 134.854-64.913 198.846-.298 4.131 2.81 7.721 6.941 8.018.184.013.366.02.547.02 3.896 0 7.187-3.013 7.472-6.961 3.344-46.434 18.072-100.477 39.487-147.841-4.877 29.535-8.203 60.062-10.006 91.984-2.926 51.784-1.954 106.799 3.071 171.994-19.521-16.809-30.561-44.11-32.857-81.425-.254-4.134-3.796-7.283-7.945-7.024-4.133.254-7.278 3.811-7.025 7.945 3.01 48.903 21.03 84.066 52.118 101.785 4.188 2.165 9.521 5.536 34.955 11.938 12.765 2.021 26.086 2.604 38.918.871 3.653-.493 7.281-1.179 10.857-2.071 1.688-.421 8.325-2.323 9.844-3.108 24.715-9.21 43.718-28.497 56.487-57.354 33.198-75.025 16.879-198.784-15.397-277.781zm-124.072 316.746c-10.789-130.246-6.171-229.311 15.57-321.091.213-.571.346-1.158.415-1.747 3.256-13.597 6.887-27.039 10.902-40.4 7.373-24.57 15.426-32.277 18.656-32.92.272-.056.532-.106 1.162.665 2.307 2.825 4.161 11.596-.682 23.104-.052.122-.099.246-.144.371-14.497 40.332-23.279 88.205-27.637 150.658-4.119 59.029-4.299 131.559-.547 227.651-6.334-1.528-12.252-3.633-17.695-6.291zm34.396 8.906c-.521-.042-1.054-.091-1.591-.143-7.602-191.67.304-300.771 27.124-375.528 4.839-11.623 5.342-23.877 1.678-32.642 3.826-9.866 6.878-16.757 9.117-20.582 2.167 5.585 4.41 15.637 5.704 21.78-5.012 8.064-6.481 20.236-3.575 32.484 14.504 78.166 4.835 187.125-33.373 375.02-.51-.031-1.021-.063-1.535-.104-1.217-.114-2.404-.201-3.549-.285zm53.166-377.56c-.023-.129-.051-.258-.082-.385-2.929-12.15.309-20.514 3.038-22.932.478-.424.751-.536.953-.536.11 0 .201.034.293.068 3.083 1.151 9.799 10.051 13.15 35.494 1.825 13.86 3.251 27.738 4.285 41.709-.016.499.017 1.003.104 1.506 6.78 94.163-4.513 192.737-36.039 319.643-5.792 1.752-11.971 2.879-18.477 3.372 38.145-188.259 47.63-298.15 32.775-377.939zm38.192 323.621c-8.66 19.57-20.442 33.971-35.108 43.036 15.386-63.506 25.151-117.637 30.556-169.219 3.32-31.68 4.927-62.235 4.859-92.064 19.506 73.032 24.324 162.582-.307 218.247z"/><path d="m223.946 238.024c-1.37-3.908-5.652-5.965-9.557-4.596-3.909 1.37-5.966 5.65-4.595 9.558 13.179 37.587 37.294 125.104-4.035 170.544-2.918-65.278-8.634-120.004-17.839-171.092-5.659-31.407-12.656-61.251-21.066-89.93 11.159 18.376 21.481 38.206 30.32 58.444 1.231 2.818 3.985 4.499 6.876 4.499 1.002 0 2.02-.202 2.998-.629 3.795-1.658 5.529-6.078 3.871-9.874-16.527-37.84-38.112-74.39-60.851-103.086-4.939-13.296-10.216-26.377-15.874-39.265-10.909-24.839-23.066-38.444-35.157-39.345-2.544-.189-4.977.21-7.198 1.128-9.183-16.696-16.266-26.24-25.337-24.076-9.212 1.546-11.97 13.122-13.841 32.112-2.409.028-4.809.622-7.083 1.804-10.756 5.59-16.572 22.874-16.816 49.983-.128 14.081.171 28.19.865 42.364-22.442 82.325-23.6 207.153 18.478 277.595 16.162 27.056 37.336 43.879 62.941 50.033 35.206 8.055 74.421-1.53 93.006-18.988 24.267-18.026 37.58-46.45 39.561-84.512 1.677-32.234-5.123-71.195-19.667-112.671zm-162.966 158.447c-31.219-52.263-37.32-141.735-26.831-216.592 3.557 29.626 8.866 59.767 16.013 90.814 11.64 50.563 27.914 103.099 50.905 164.227-15.663-7.212-29.111-20.073-40.087-38.449zm58.311 44.205c-53.906-140.837-76.518-247.613-75.531-356.337.23-25.647 5.814-35.293 8.734-36.811.245-.128.478-.251 1.299.314 3.002 2.069 7.231 9.973 5.798 22.377-.016.131-.027.263-.035.395-5.043 80.987 17.737 188.916 78.491 371.148-6.515.307-12.788-.054-18.756-1.086zm33.948-.77c-60.772-181.866-83.619-288.837-78.727-368.17 1.398-12.494-1.532-24.382-7.478-31.777.536-6.248 1.538-16.518 3.005-22.327 3.636 4.759 8.595 13.794 11.547 19.325-2.557 9.14-.566 21.232 5.646 32.175 35.719 71.006 56.821 178.338 72.544 369.454-.502.109-6.032 1.225-6.537 1.32zm21.234-5.604c-15.884-191.446-37.425-299.625-73.933-372.092-.061-.119-.123-.237-.189-.352-6.207-10.84-5.437-19.77-3.494-22.852.446-.708.702-.803.936-.803.043 0 .085.003.128.006 3.282.244 12.217 6.916 22.539 30.417 43.708 99.564 64.944 206.595 70.807 357.278-5.083 3.307-10.699 6.114-16.794 8.398z"/></g></svg>