<svg id="Layer_5" enable-background="new 0 0 64 64" height="512" viewBox="0 0 64 64" width="512" xmlns="http://www.w3.org/2000/svg"><g><path d="m41.9 35.407-1.827-.814c-1.089 2.445-3.036 4.392-5.48 5.48l.813 1.826c2.897-1.29 5.203-3.595 6.494-6.492z"/><path d="m49.979 19c-3.369 0-6.537 1.281-8.968 3.597l-1.026-1.025c-1.658-1.659-3.862-2.572-6.207-2.572-3.737 0-6.778-3.041-6.778-6.778 0-2.345-.913-4.549-2.571-6.207l-1.201-1.201c-2.459-2.46-5.729-3.814-9.207-3.814-7.18 0-13.021 5.841-13.021 13.021v.37c0 1.157.154 2.31.459 3.425.844 3.096 2.098 6.055 3.694 8.831-2.504 1.708-4.153 4.584-4.153 7.838v.583c0 .69.076 1.383.226 2.058 2.304 10.371 10.301 18.551 20.531 21.168 2.391 2.988 5.924 4.706 9.765 4.706 1.067 0 2.131-.137 3.161-.405l1.062-.277c12.995-3.391 23.263-13.545 26.796-26.502.305-1.117.459-2.269.459-3.425v-.37c0-7.18-5.841-13.021-13.021-13.021zm-46.59-1.711c-.258-.944-.389-1.919-.389-2.898v-.37c0-6.078 4.944-11.021 11.021-11.021 2.943 0 5.711 1.146 7.793 3.228l1.201 1.201c1.28 1.28 1.985 2.982 1.985 4.793 0 4.84 3.938 8.778 8.778 8.778 1.811 0 3.513.705 4.793 1.985l1.015 1.015-.015.015c-1.658 1.658-2.571 3.862-2.571 6.207 0 3.737-3.041 6.778-6.778 6.778-1.989 0-3.904.68-5.453 1.91-2.144-.416-3.769-2.303-3.769-4.567 0-1.777-.692-3.448-1.95-4.707l-1.858-1.857c-1.791-1.793-4.172-2.779-6.707-2.779-1.263 0-2.466.253-3.569.703-1.526-2.643-2.723-5.463-3.527-8.414zm-.211 19.403c-.118-.533-.178-1.079-.178-1.624v-.583c0-4.128 3.358-7.485 7.485-7.485 2 0 3.879.778 5.293 2.192l1.857 1.857c.881.881 1.365 2.051 1.365 3.294 0 3.671 2.986 6.657 6.657 6.657 1.245 0 2.414.484 3.293 1.364l1.956 1.955c1.35 1.352 2.094 3.148 2.094 5.057v.473c0 3.943-3.208 7.151-7.151 7.151-.494 0-.99-.052-1.473-.153l-1.038-.219c-10.025-2.11-17.938-9.936-20.16-19.936zm57.822-4.301c0 .979-.13 1.954-.388 2.899-3.346 12.268-13.068 21.882-25.372 25.092l-1.063.277c-.865.227-1.758.341-2.655.341-2.275 0-4.416-.727-6.191-2.027.173.01.345.027.518.027 5.046 0 9.151-4.105 9.151-9.151v-.473c0-2.443-.952-4.741-2.68-6.471l-1.956-1.955c-.7-.701-1.532-1.218-2.436-1.546.73-.263 1.504-.404 2.294-.404 4.84 0 8.778-3.938 8.778-8.778 0-1.811.705-3.513 1.985-4.793l1.201-1.201c2.082-2.082 4.85-3.228 7.793-3.228 6.077 0 11.021 4.943 11.021 11.021z"/><path d="m5.463 17.278c.208.717.442 1.437.699 2.141l1.879-.685c-.241-.661-.461-1.338-.657-2.012z"/><path d="m13.998 5c-4.962.013-8.998 4.06-8.998 9.021v.37c0 .229.009.459.026.687l1.994-.154c-.013-.178-.02-.356-.02-.533v-.37c0-3.862 3.142-7.011 7.002-7.021z"/><path d="m48.571 48.292 1.413 1.416c.661-.659 1.3-1.354 1.901-2.062l-1.525-1.293c-.565.667-1.167 1.319-1.789 1.939z"/><path d="m34.23 56.512-.482.126.505 1.936.482-.126c5.245-1.368 10.145-4.034 14.169-7.709l-1.349-1.477c-3.785 3.456-8.393 5.964-13.325 7.25z"/><path d="m28.593 23.899.813-1.826c-2.444-1.089-4.391-3.035-5.48-5.48l-1.826.814c1.291 2.897 3.597 5.202 6.493 6.492z"/><path d="m5 34.485v.583c0 .398.044.799.131 1.19.236 1.062.547 2.118.924 3.136l1.876-.693c-.346-.935-.631-1.902-.848-2.876-.055-.249-.083-.504-.083-.757v-.583c0-1.795 1.345-3.286 3.128-3.467l-.202-1.99c-2.808.285-4.926 2.632-4.926 5.457z"/><path d="m6.917 41.43c.349.729.74 1.451 1.164 2.146l1.708-1.041c-.389-.638-.748-1.3-1.068-1.968z"/><path d="m17.345 36.768-1.92.561c1.022 3.499 3.837 6.287 7.345 7.275l.542-1.926c-2.85-.803-5.136-3.068-5.967-5.91z"/></g></svg>