<svg height="512pt" viewBox="0 0 512.00051 512" width="512pt" xmlns="http://www.w3.org/2000/svg"><g fill="#ffedd1"><path d="m483.050781 340.882812c-11.714843-11.714843-19.019531-31.746093-12.183593-50.839843l-129.804688 129.808593c-17.296875 17.292969-17.6875 45.414063-.53125 62.847657.117188.117187.234375.234375.347656.351562 30.5 30.5 87.054688 23.402344 126.3125-15.855469 39.257813-39.261718 46.359375-95.8125 15.859375-126.3125zm0 0"/><path d="m318.351562 316.507812c50.609376 0 91.636719-50.207031 91.636719-112.144531s-41.027343-112.144531-91.636719-112.144531l-23.621093-.234375c-33.554688-.332031-60.585938-27.628906-60.585938-61.1875v-20.796875h-48.273437v20.796875c0 33.558594-27.03125 60.855469-60.589844 61.1875l-23.640625.230469c-50.613281.003906-91.640625 50.210937-91.640625 112.148437s41.027344 112.144531 91.636719 112.144531"/><path d="m318.351562 316.507812c50.609376 0 91.636719-50.207031 91.636719-112.144531s-41.027343-112.144531-91.636719-112.144531l-23.621093-.234375c-33.554688-.332031-60.585938-27.628906-60.585938-61.1875v-20.796875h-48.273437v20.796875c0 33.558594-27.03125 60.855469-60.589844 61.1875l-23.640625.230469c-50.613281.003906-91.640625 50.210937-91.640625 112.148437s41.027344 112.144531 91.636719 112.144531zm0 0"/></g><path d="m291.253906 92.671875-.207031-.84375c-31.828125-2.210937-56.902344-28.710937-56.902344-61.03125v-20.796875h-48.277343v20.796875c0 31.191406-23.351563 56.957031-53.59375 60.707031v.015625l-4.832032 2.226563c-37.378906 15.925781-64.371094 61.628906-64.371094 115.527344 0 67.128906 41.878907 121.550781 93.542969 121.550781 20.140625 0 38.792969-8.269531 54.058594-22.339844 15.265625 14.070313 33.917969 22.339844 54.058594 22.339844 51.664062 0 93.542969-54.421875 93.542969-121.550781.003906-55.164063-28.273438-101.742188-67.019532-116.601563zm0 0" fill="#ffd89e"/><path d="m490.121094 333.808594c-8.90625-8.90625-15.402344-24.851563-9.839844-40.394532 1.578125-4.402343-.109375-9.3125-4.0625-11.816406s-9.113281-1.933594-12.421875 1.375l-129.804687 129.804688c-21.203126 21.203125-21.46875 55.71875-.605469 76.917968l.425781.425782c14.308594 14.3125 33.753906 21.878906 55.667969 21.878906 4.09375 0 8.273437-.265625 12.519531-.796875 26.050781-3.269531 51.714844-16.390625 72.265625-36.941406s33.667969-46.214844 36.9375-72.261719c3.386719-26.988281-4.097656-51.207031-21.082031-68.191406zm-30 126.3125c-17.425782 17.425781-38.953125 28.519531-60.613282 31.238281-20.726562 2.601563-39.035156-2.859375-51.554687-15.378906l-.292969-.296875c-13.207031-13.421875-12.996094-35.296875.472656-48.761719l111.109376-111.109375c2.410156 12.902344 8.945312 24.351562 16.738281 32.140625 26.550781 26.550781 19.4375 76.871094-15.859375 112.167969zm0 0"/><path d="m311.945312 326.507812h6.40625c56.042969 0 101.636719-54.792968 101.636719-122.144531 0-67.351562-45.59375-122.144531-101.539062-122.144531l-23.617188-.234375c-27.949219-.273437-50.6875-23.238281-50.6875-51.1875v-20.796875c0-5.523438-4.476562-10-10-10h-48.273437c-5.523438 0-10 4.476562-10 10v20.796875c0 27.949219-22.738282 50.914063-50.6875 51.1875l-23.542969.234375c-56.046875 0-101.640625 54.792969-101.640625 122.144531 0 67.351563 45.59375 122.144531 101.636719 122.144531h7.761719c14.40625 9.363282 30.484374 14.316407 47.214843 14.316407 1.800781 0 3.59375-.078125 5.378907-.191407v24.035157c0 5.523437 4.476562 10 10 10 5.523437 0 10-4.476563 10-10v-27.796875c6.1875-1.964844 12.207031-4.664063 18.003906-8.058594v35.855469c0 5.523437 4.476562 10 10 10 5.519531 0 9.996094-4.476563 9.996094-10v-36.644531c5.789062 3.519531 11.8125 6.316406 18.003906 8.398437v28.246094c0 5.523437 4.476562 10 10 10 5.523437 0 10-4.476563 10-10v-24.121094c2.234375.179687 4.476562.277344 6.734375.277344 16.734375 0 32.808593-4.953125 47.214843-14.316407zm88.042969-122.144531c0 48.402344-27.042969 89.046875-63.21875 99.523438.683594-.839844 1.363281-1.695313 2.03125-2.566407 19.007813-24.695312 29.472657-57.386718 29.472657-92.046874 0-28.539063-7.035157-55.667969-20.34375-78.457032-6.332032-10.839844-13.988282-20.347656-22.570313-28.21875 41.746094 4.464844 74.628906 48.398438 74.628906 101.765625zm-379.988281 0c0-53.929687 33.578125-98.222656 76.03125-101.894531-26.492188 24.242188-42.960938 63.617188-42.960938 106.804688 0 34.660156 10.464844 67.351562 29.472657 92.050781.796875 1.035156 1.609375 2.046875 2.429687 3.042969-37.050781-9.652344-64.972656-50.824219-64.972656-100.003907zm98.863281 104.40625c-.367187-.296875-.757812-.566406-1.164062-.8125-26.515625-18.714843-44.628907-55.925781-44.628907-98.683593 0-48.742188 23.425782-91.472657 58.289063-106.328126.089844-.039062.179687-.078124.265625-.117187l3.554688-1.636719c34.242187-5.125 60.6875-34.851562 60.6875-70.398437v-10.792969h28.277343v10.796875c0 36.082031 27.257813 66.171875 62.261719 70.609375.402344.222656.820312.433594 1.265625.601562 35.683594 13.683594 60.605469 57.792969 60.605469 107.265626 0 42.753906-18.113282 79.964843-44.625 98.679687-.414063.25-.8125.519531-1.179688.824219-11.34375 7.703125-24.167968 12.046875-37.742187 12.046875-15.667969 0-30.816407-5.828125-44.058594-16.882813v-226.832031c0-5.523437-4.476563-10-10-10s-10 4.476563-10 10v226.832031c-13.242187 11.054688-28.390625 16.882813-44.058594 16.882813-13.574219 0-26.402343-4.347657-37.75-12.054688zm0 0"/><path d="m210.675781 413.902344c2.628907 0 5.207031-1.070313 7.066407-2.929688 1.863281-1.859375 2.933593-4.441406 2.933593-7.070312s-1.070312-5.210938-2.933593-7.070313c-1.859376-1.859375-4.4375-2.929687-7.066407-2.929687-2.632812 0-5.210937 1.070312-7.070312 2.929687s-2.929688 4.441407-2.929688 7.070313c0 2.640625 1.070313 5.210937 2.929688 7.070312s4.429687 2.929688 7.070312 2.929688zm0 0"/></svg>