<?xml version="1.0" encoding="iso-8859-1"?>
<!-- Generator: Adobe Illustrator 19.0.0, SVG Export Plug-In . SVG Version: 6.00 Build 0)  -->
<svg version="1.1" id="Capa_1" xmlns="http://www.w3.org/2000/svg" xmlns:xlink="http://www.w3.org/1999/xlink" x="0px" y="0px"
	 viewBox="0 0 512 512" style="enable-background:new 0 0 512 512;" xml:space="preserve">
<path style="fill:#D08261;" d="M250.811,285.26l71.88-270.563c1.376-5.178,6.653-8.251,11.787-6.864l9.296,2.512
	c5.134,1.388,8.181,6.71,6.805,11.889L278.7,292.797c-4.997,18.81-3.639,38.587,2.803,56.944c2.505,7.139,2.97,15.09,0.879,22.959
	l-7.473,28.129c-5.503,20.713-26.613,33.006-47.15,27.456l0,0c-20.537-5.55-32.725-26.841-27.222-47.554l7.473-28.129
	c2.091-7.869,6.434-14.52,12.143-19.44C234.833,320.513,245.813,304.07,250.811,285.26z"/>
<path style="fill:#B5FFFE;" d="M408.066,203.58h-43.31v-50.475H64.474v302.859c0,10.722,8.618,19.414,19.249,19.414
	c0,16.083,12.927,29.121,28.873,29.121h204.038c15.946,0,28.873-13.038,28.873-29.121c10.631,0,19.249-8.692,19.249-19.414v-56.301
	h16.345c22.177,0,42.169-16.066,49.748-37.086l22.704-62.973c4.942-13.706,7.448-28.05,7.448-42.636
	C461,227.53,437.254,203.58,408.066,203.58z M426.418,289.652l-22.705,62.973c-3.445,9.554-12.532,15.974-22.612,15.974h-16.345
	V232.701h43.31c13.267,0,24.061,10.886,24.061,24.268C432.127,268.15,430.206,279.146,426.418,289.652z"/>
<path style="fill:#C5F9FF;" d="M313.426,475.379H83.723c-10.631,0-19.249-8.692-19.249-19.414v-302.86h268.2v302.859
	C332.674,466.687,324.057,475.379,313.426,475.379z"/>
<path style="fill:#FFBF98;" d="M278.7,292.798c-4.997,18.809-3.639,38.587,2.803,56.944c2.505,7.139,2.97,15.09,0.879,22.959
	l-7.473,28.129c-5.503,20.714-26.613,33.006-47.15,27.456l0,0c-20.537-5.55-32.725-26.841-27.222-47.555l7.473-28.129
	c2.091-7.869,6.434-14.52,12.143-19.44c14.679-12.649,25.66-29.092,30.657-47.901l35.109-132.155h29.892L278.7,292.798z"/>
<path style="fill:#B5FFFE;" d="M378.23,150.193L378.23,150.193c0,8.042-6.519,14.561-14.561,14.561H65.561
	c-8.042,0-14.561-6.519-14.561-14.561l0,0c0-8.042,6.519-14.561,14.561-14.561H363.67
	C371.711,135.633,378.23,142.152,378.23,150.193z"/>
<path style="fill:#FFD573;" d="M364.756,232.703v223.262c0,10.722-8.618,19.414-19.249,19.414H83.723
	c-10.631,0-19.249-8.692-19.249-19.414V271.531h64.752c28.305,0,56.222-6.647,81.539-19.414l0,0
	c25.317-12.767,53.234-19.414,81.539-19.414H364.756z"/>
<path style="fill:#FFB45A;" d="M364.756,232.703v223.262c0,10.722-8.618,19.414-19.249,19.414h-32.081
	c10.631,0,19.249-8.692,19.249-19.414V232.703H364.756z M294.665,232.703h-2.361c-9.445,0-18.844,0.757-28.121,2.218l-13.374,50.34
	c-4.997,18.809-15.978,35.252-30.657,47.901c-5.709,4.919-10.053,11.571-12.143,19.44l-7.473,28.129
	c-5.503,20.713,6.685,42.004,27.222,47.555c20.537,5.55,41.647-6.742,47.15-27.456l7.473-28.129
	c2.091-7.869,1.626-15.82-0.879-22.959c-6.442-18.357-7.8-38.135-2.803-56.944L294.665,232.703z M131.845,250.176
	c-10.631,0-19.249,8.692-19.249,19.414s8.618,19.414,19.249,19.414s19.249-8.692,19.249-19.414S142.476,250.176,131.845,250.176z
	 M165.531,318.125c-7.973,0-14.437,6.519-14.437,14.561s6.464,14.561,14.437,14.561s14.437-6.519,14.437-14.561
	S173.504,318.125,165.531,318.125z"/>
<path d="M114.721,56.04V26.919c0-4.143,3.358-7.5,7.5-7.5s7.5,3.357,7.5,7.5V56.04c0,4.639,2.73,8.783,6.955,10.558
	c9.808,4.122,16.144,13.694,16.144,24.387v13.589c0,4.143-3.358,7.5-7.5,7.5s-7.5-3.357-7.5-7.5V90.986
	c0-4.639-2.73-8.783-6.956-10.559C121.058,76.306,114.721,66.734,114.721,56.04z M165.512,67.807
	c4.226,1.776,6.956,5.92,6.956,10.558v26.209c0,4.143,3.358,7.5,7.5,7.5s7.5-3.357,7.5-7.5V78.366
	c0-10.692-6.336-20.264-16.143-24.386c-4.226-1.776-6.956-5.92-6.956-10.558V7.505c0-4.143-3.358-7.5-7.5-7.5s-7.5,3.357-7.5,7.5
	v35.916C149.369,54.113,155.705,63.685,165.512,67.807z M468.5,259.885c0,15.454-2.655,30.654-7.892,45.179l-22.704,62.972
	c-8.648,23.984-31.476,40.099-56.804,40.099h-8.845v47.83c0,12.441-8.434,22.932-19.85,26.002
	C349.314,499.025,334.455,512,316.634,512H112.596c-17.822,0-32.68-12.975-35.772-30.033c-11.416-3.069-19.85-13.561-19.85-26.002
	V170.518c-7.911-3.355-13.474-11.201-13.474-20.321c0-12.164,9.896-22.06,22.061-22.06h219.233l30.647-115.36
	c1.186-4.46,4.032-8.183,8.015-10.482c3.96-2.286,8.569-2.889,12.979-1.696l9.296,2.513c9.102,2.46,14.528,11.905,12.097,21.054
	l-27.621,103.972h33.463c12.164,0,22.061,9.896,22.061,22.06c0,9.12-5.563,16.965-13.475,20.321v28.48h35.81
	C441.39,198.997,468.5,226.312,468.5,259.885z M271.451,290.874l13.413-50.487c-4.917,0.214-9.825,0.64-14.71,1.273l-12.095,45.528
	c-5.232,19.693-16.647,37.556-33.01,51.657c-4.771,4.11-8.157,9.534-9.791,15.683l-7.473,28.129
	c-4.437,16.7,5.401,33.921,21.931,38.388c7.938,2.145,16.244,1.059,23.382-3.062c7.231-4.175,12.403-10.95,14.562-19.079
	l7.473-28.129c1.636-6.155,1.392-12.569-0.707-18.551C267.249,331.778,266.221,310.563,271.451,290.874z M288.593,172.258
	l-14.304,53.84c4.853-0.471,9.722-0.75,14.595-0.841l14.081-52.999H288.593z M304.419,225.206h52.837v-52.949h-38.77
	L304.419,225.206z M372.256,364.015h8.845c6.93,0,13.181-4.428,15.557-11.017l22.705-62.973c3.493-9.688,5.265-19.829,5.265-30.139
	c0-9.246-7.43-16.767-16.562-16.767h-35.81V364.015z M300.315,128.137h14.37l28.646-107.823c0.316-1.19-0.362-2.411-1.514-2.723
	l-9.296-2.513c-0.68-0.184-1.227,0.01-1.565,0.207c-0.291,0.168-0.811,0.565-1.018,1.343L300.315,128.137z M58.5,150.197
	c0,3.894,3.167,7.06,7.061,7.06h54.772c4.142,0,7.5,3.357,7.5,7.5s-3.358,7.5-7.5,7.5H71.974v91.776h33.699
	c2.553-12.182,13.316-21.355,26.172-21.355c12.028,0,22.224,8.03,25.578,19.041c17.387-2.864,34.177-8.335,49.964-16.296
	c15.998-8.068,33.166-13.802,50.778-17.058l14.906-56.108H152.667c-4.142,0-7.5-3.357-7.5-7.5s3.358-7.5,7.5-7.5H363.67
	c3.894,0,7.061-3.167,7.061-7.06c0-3.894-3.167-7.06-7.061-7.06H65.561C61.667,143.137,58.5,146.304,58.5,150.197z M131.845,257.678
	c-6.479,0-11.749,5.345-11.749,11.914s5.271,11.914,11.749,11.914c6.478,0,11.749-5.345,11.749-11.914
	S138.323,257.678,131.845,257.678z M336.679,482.879H92.551C95.572,491.115,103.417,497,112.596,497h204.038
	C325.813,497,333.658,491.115,336.679,482.879z M357.256,455.965V240.206h-56.822l-14.484,54.52
	c-4.456,16.769-3.546,34.935,2.631,52.534c3.098,8.831,3.461,18.295,1.05,27.368l-7.472,28.129
	c-3.191,12.013-10.849,22.034-21.561,28.217c-7.055,4.074-14.88,6.154-22.804,6.154c-4,0-8.025-0.529-11.991-1.602
	c-24.479-6.616-39.065-32.061-32.514-56.72l7.473-28.129c2.414-9.083,7.426-17.103,14.496-23.195
	c14.064-12.119,23.852-27.384,28.304-44.145l10.3-38.772c-13.747,3.128-27.128,7.901-39.72,14.251
	c-17.837,8.995-36.853,15.059-56.552,18.059c-3.165,11.312-13.505,19.631-25.745,19.631c-11.449,0-21.237-7.276-25.046-17.472
	H71.974v176.932c0,6.569,5.271,11.914,11.749,11.914h261.784C351.985,467.879,357.256,462.535,357.256,455.965z M453.5,259.885
	c0-25.302-20.382-45.888-45.435-45.888h-35.81v14.121h35.81c17.403,0,31.562,14.251,31.562,31.767c0,12.05-2.07,23.902-6.153,35.227
	l-22.705,62.973c-4.514,12.518-16.437,20.929-29.668,20.929h-8.845v14.121h8.845c19.025,0,36.183-12.132,42.692-30.187
	l22.704-62.972C451.144,287.088,453.5,273.6,453.5,259.885z M187.467,332.687c0,12.164-9.841,22.06-21.937,22.06
	s-21.937-9.896-21.937-22.06s9.841-22.06,21.937-22.06C177.626,310.627,187.467,320.524,187.467,332.687z M172.467,332.687
	c0-3.894-3.112-7.06-6.937-7.06s-6.937,3.167-6.937,7.06s3.112,7.06,6.937,7.06C169.355,339.748,172.467,336.581,172.467,332.687z"
	/>
<g>
</g>
<g>
</g>
<g>
</g>
<g>
</g>
<g>
</g>
<g>
</g>
<g>
</g>
<g>
</g>
<g>
</g>
<g>
</g>
<g>
</g>
<g>
</g>
<g>
</g>
<g>
</g>
<g>
</g>
</svg>
